<?xml version="1.0" encoding="utf-8"?>
<!-- Generator: Adobe Illustrator 22.0.1, SVG Export Plug-In . SVG Version: 6.00 Build 0)  -->
<svg version="1.1" id="Layer_1" xmlns="http://www.w3.org/2000/svg" xmlns:xlink="http://www.w3.org/1999/xlink" x="0px" y="0px"
	 width="500px" height="500px" viewBox="0 0 500 500" style="enable-background:new 0 0 500 500;" xml:space="preserve">
<style type="text/css">
	.st0{opacity:0.1;fill:#231F20;enable-background:new    ;}
	.st1{fill:url(#SVGID_1_);}
	.st2{opacity:0.2;}
	.st3{fill:#231F20;}
	.st4{fill:#F1F2F2;}
	.st5{fill:#E6E7E8;}
	.st6{fill:#FFFFFF;}
	.st7{fill:#414042;}
	.st8{fill:#B2875D;}
	.st9{opacity:0.1;}
	.st10{fill:#C49A6C;}
	.st11{fill:#4C3D33;}
</style>
<g id="BACKGROUND_2">
</g>
<g id="BACKGROUND_1">
	<g>
		<g>
			<path class="st0" d="M477.4,430.5c0,10.2-101.6,8.9-227,8.9s-227,1.3-227-8.9c0-10.2,101.6-18.4,227-18.4
				S477.4,420.3,477.4,430.5z"/>
			<g>
				<g>
					
						<linearGradient id="SVGID_1_" gradientUnits="userSpaceOnUse" x1="115.1043" y1="351.9" x2="388.7043" y2="351.9" gradientTransform="matrix(1 0 0 -1 0 500)">
						<stop  offset="0" style="stop-color:#474FD6"/>
						<stop  offset="1" style="stop-color:#8993EF"/>
					</linearGradient>
					<path class="st1" d="M346.9,108.2c0-0.4,0-0.8,0-1.3c0-23.9-19.4-43.3-43.3-43.3c-5.6,0-10.9,1.1-15.7,3
						c-14.2-19.9-37.5-32.9-63.8-32.9c-41.1,0-74.8,31.7-78,71.9c-18.9,14.6-31,37.5-31,63.2c0,44.1,35.8,79.9,79.9,79.9
						c2.1,0,4.2-0.1,6.3-0.3c13.2,8.9,29.1,14.1,46.2,14.1c18.5,0,35.6-6.1,49.4-16.4c5.8,1.4,11.8,2.2,18,2.2
						c40.7,0,73.8-33,73.8-73.8C388.6,145.4,371.6,120.1,346.9,108.2z"/>
					<g>
						<g class="st2">
							<polygon class="st3" points="289.3,86.3 289.4,86.3 190.2,86.3 190.2,241.1 334.5,241.8 316.3,113.5 							"/>
						</g>
						<g>
							<polygon class="st4" points="283.8,84.5 283.9,84.4 184.7,84.4 184.7,239.3 313.4,239.3 313.4,114 							"/>
						</g>
						<g>
							<rect x="192.1" y="96.4" class="st5" width="98.3" height="1.7"/>
							<rect x="192.1" y="111.6" class="st5" width="114.2" height="1.7"/>
							<rect x="192.1" y="126.8" class="st5" width="114.2" height="1.7"/>
							<rect x="192.1" y="142.1" class="st5" width="114.2" height="1.7"/>
							<rect x="192.1" y="157.3" class="st5" width="114.2" height="1.7"/>
							<rect x="192.1" y="172.5" class="st5" width="114.2" height="1.7"/>
							<rect x="192.1" y="187.7" class="st5" width="114.2" height="1.7"/>
							<rect x="192.1" y="203" class="st5" width="114.2" height="1.7"/>
							<rect x="192.1" y="218.2" class="st5" width="114.2" height="1.7"/>
							<rect x="192.1" y="233.4" class="st5" width="114.2" height="1.7"/>
						</g>
						<polygon class="st6" points="313.4,114 283.8,114 283.8,84.5 						"/>
						<g>
							<g>
								<g>
									<path class="st6" d="M238.7,139.4c0,10-8.1,18.1-18.1,18.1s-18.1-8.1-18.1-18.1s8.1-18.1,18.1-18.1
										C230.6,121.3,238.7,129.4,238.7,139.4z"/>
									<path class="st7" d="M234,139.4c0,7.4-6,13.4-13.4,13.4s-13.4-6-13.4-13.4s6-13.4,13.4-13.4C228,126,234,132,234,139.4z"/>
									<path class="st6" d="M221.1,130.2c0,2.5-2,4.6-4.6,4.6c-2.5,0-4.6-2-4.6-4.6c0-2.5,2-4.6,4.6-4.6S221.1,127.7,221.1,130.2z
										"/>
									<path class="st6" d="M214.2,139.7c0,1.3-1,2.3-2.3,2.3s-2.3-1-2.3-2.3s1-2.3,2.3-2.3C213.2,137.5,214.2,138.5,214.2,139.7z
										"/>
									<path class="st6" d="M220.5,145.9c0,1.9-1.6,3.5-3.5,3.5s-3.5-1.6-3.5-3.5s1.6-3.5,3.5-3.5S220.5,144,220.5,145.9z"/>
									<path class="st6" d="M232.2,141.6c-4,0.6-4.5,1.1-5.1,5.1c-0.6-4-1.1-4.5-5.1-5.1c4-0.6,4.5-1.1,5.1-5.1
										C227.7,140.5,228.2,141,232.2,141.6z"/>
								</g>
								<g>
									<path class="st6" d="M296.8,139.4c0,10-8.1,18.1-18.1,18.1s-18.1-8.1-18.1-18.1s8.1-18.1,18.1-18.1
										S296.8,129.4,296.8,139.4z"/>
									<path class="st7" d="M292.1,139.4c0,7.4-6,13.4-13.4,13.4s-13.4-6-13.4-13.4s6-13.4,13.4-13.4
										C286.1,126,292.1,132,292.1,139.4z"/>
									<path class="st6" d="M279.2,130.2c0,2.5-2,4.6-4.6,4.6c-2.5,0-4.6-2-4.6-4.6c0-2.5,2-4.6,4.6-4.6S279.2,127.7,279.2,130.2z
										"/>
									<path class="st6" d="M272.3,139.7c0,1.3-1,2.3-2.3,2.3s-2.3-1-2.3-2.3s1-2.3,2.3-2.3C271.3,137.5,272.3,138.5,272.3,139.7z
										"/>
									<path class="st6" d="M278.5,145.9c0,1.9-1.6,3.5-3.5,3.5s-3.5-1.6-3.5-3.5s1.6-3.5,3.5-3.5S278.5,144,278.5,145.9z"/>
									<path class="st6" d="M290.3,141.6c-4,0.6-4.5,1.1-5.1,5.1c-0.6-4-1.1-4.5-5.1-5.1c4-0.6,4.5-1.1,5.1-5.1
										C285.8,140.5,286.3,141,290.3,141.6z"/>
								</g>
							</g>
							<g>
								<g>
									<path class="st7" d="M273.3,191.1c-1.5,0-2.7-1.2-2.7-2.7c0-11.6-9.4-21-21-21s-21,9.4-21,21c0,1.5-1.2,2.7-2.7,2.7
										s-2.7-1.2-2.7-2.7c0-14.5,11.8-26.4,26.4-26.4c14.5,0,26.4,11.8,26.4,26.4C276,189.9,274.8,191.1,273.3,191.1z"/>
								</g>
							</g>
						</g>
					</g>
				</g>
				<g>
					<g>
						<g>
							<polygon class="st8" points="400.5,429.3 97.3,429.3 97.3,195.6 400.5,195.6 							"/>
						</g>
						<g>
							<g class="st9">
								<rect x="97.5" y="293.4" class="st6" width="30.8" height="16.9"/>
							</g>
							<g class="st9">
								<rect x="97.5" y="332.7" class="st6" width="30.8" height="16.9"/>
							</g>
							<g class="st9">
								<rect x="97.5" y="372" class="st6" width="30.8" height="16.9"/>
							</g>
							<g class="st9">
								<rect x="369.7" y="293.4" class="st6" width="30.8" height="16.9"/>
							</g>
							<g class="st9">
								<rect x="369.7" y="332.7" class="st6" width="30.8" height="16.9"/>
							</g>
							<g class="st9">
								<rect x="369.7" y="372" class="st6" width="30.8" height="16.9"/>
							</g>
						</g>
					</g>
					<g>
						<g>
							<polygon class="st10" points="459.2,258.1 396.8,199.5 400.5,195.6 462.9,254.2 							"/>
						</g>
						<g>
							<polygon class="st10" points="38.7,258.1 101.1,199.5 97.3,195.6 35,254.2 							"/>
						</g>
						<g>
							<polygon class="st10" points="420.8,273.3 77.1,273.3 97.3,195.6 400.5,195.6 							"/>
						</g>
					</g>
				</g>
			</g>
		</g>
	</g>
</g>
<g id="DESIGNED_BY_FREEPIK">
</g>
<g>
	<path class="st11" d="M153.8,405.5h-4.7l-7.9-11.9v11.9h-4.7v-19.3h4.7l7.9,11.9v-11.9h4.7V405.5z"/>
	<path class="st11" d="M161.4,404.5c-1.5-0.8-2.7-2-3.6-3.5s-1.3-3.2-1.3-5.1c0-1.9,0.4-3.6,1.3-5.1c0.9-1.5,2.1-2.7,3.6-3.5
		c1.5-0.8,3.2-1.3,5-1.3s3.5,0.4,5,1.3c1.5,0.8,2.7,2,3.6,3.5c0.9,1.5,1.3,3.2,1.3,5.1c0,1.9-0.4,3.6-1.3,5.1s-2.1,2.7-3.6,3.5
		c-1.5,0.8-3.2,1.3-5,1.3S162.9,405.3,161.4,404.5z M170.1,399.9c0.9-1,1.4-2.4,1.4-4c0-1.7-0.5-3-1.4-4c-0.9-1-2.2-1.5-3.7-1.5
		c-1.6,0-2.8,0.5-3.7,1.5c-0.9,1-1.4,2.4-1.4,4c0,1.7,0.5,3,1.4,4c0.9,1,2.2,1.5,3.7,1.5C167.9,401.4,169.1,400.9,170.1,399.9z"/>
	<path class="st11" d="M197.2,402.1H190l-1.2,3.4h-4.9l7-19.3h5.4l7,19.3h-5L197.2,402.1z M196,398.6l-2.4-7.1l-2.4,7.1H196z"/>
	<path class="st11" d="M210.1,386.3v11.5c0,1.2,0.3,2,0.9,2.7c0.6,0.6,1.4,0.9,2.5,0.9c1.1,0,1.9-0.3,2.5-0.9
		c0.6-0.6,0.9-1.5,0.9-2.7v-11.5h4.7v11.5c0,1.7-0.4,3.2-1.1,4.4s-1.7,2.1-3,2.7c-1.2,0.6-2.6,0.9-4.1,0.9s-2.9-0.3-4.1-0.9
		s-2.1-1.5-2.8-2.7c-0.7-1.2-1-2.7-1-4.4v-11.5H210.1z"/>
	<path class="st11" d="M238.7,386.3v3.7h-5.1v15.6h-4.7V390h-5.1v-3.7H238.7z"/>
	<path class="st11" d="M245.2,404.5c-1.5-0.8-2.7-2-3.6-3.5c-0.9-1.5-1.3-3.2-1.3-5.1c0-1.9,0.4-3.6,1.3-5.1
		c0.9-1.5,2.1-2.7,3.6-3.5c1.5-0.8,3.2-1.3,5-1.3c1.8,0,3.5,0.4,5,1.3c1.5,0.8,2.7,2,3.6,3.5c0.9,1.5,1.3,3.2,1.3,5.1
		c0,1.9-0.4,3.6-1.3,5.1c-0.9,1.5-2.1,2.7-3.6,3.5c-1.5,0.8-3.2,1.3-5,1.3C248.3,405.7,246.7,405.3,245.2,404.5z M253.9,399.9
		c0.9-1,1.4-2.4,1.4-4c0-1.7-0.5-3-1.4-4c-0.9-1-2.2-1.5-3.7-1.5c-1.6,0-2.8,0.5-3.7,1.5c-0.9,1-1.4,2.4-1.4,4c0,1.7,0.5,3,1.4,4
		c0.9,1,2.2,1.5,3.7,1.5C251.7,401.4,252.9,400.9,253.9,399.9z"/>
	<path class="st11" d="M272.5,405.5l-4-7.3h-1.1v7.3h-4.7v-19.3h7.9c1.5,0,2.8,0.3,3.9,0.8s1.9,1.3,2.4,2.2s0.8,2,0.8,3.1
		c0,1.3-0.4,2.4-1.1,3.4c-0.7,1-1.8,1.7-3.2,2.1l4.5,7.6H272.5z M267.3,394.9h2.9c0.9,0,1.5-0.2,1.9-0.6c0.4-0.4,0.6-1,0.6-1.8
		c0-0.8-0.2-1.3-0.6-1.8c-0.4-0.4-1.1-0.6-1.9-0.6h-2.9V394.9z"/>
	<path class="st11" d="M285.2,386.3v19.3h-4.7v-19.3H285.2z"/>
	<path class="st11" d="M293.6,401.7h8.3v3.8h-13.6V402l8.2-11.9h-8.2v-3.8h13.6v3.6L293.6,401.7z"/>
	<path class="st11" d="M317,402.1h-7.2l-1.2,3.4h-4.9l7-19.3h5.4l7,19.3h-5L317,402.1z M315.8,398.6l-2.4-7.1l-2.4,7.1H315.8z"/>
	<path class="st11" d="M337.8,387.5c1.5,0.8,2.7,1.9,3.5,3.4c0.8,1.5,1.3,3.1,1.3,5c0,1.9-0.4,3.6-1.3,5c-0.8,1.5-2,2.6-3.5,3.4
		c-1.5,0.8-3.3,1.2-5.3,1.2h-7.2v-19.3h7.2C334.5,386.3,336.3,386.7,337.8,387.5z M336.3,400c1-1,1.5-2.4,1.5-4.1
		c0-1.8-0.5-3.2-1.5-4.1c-1-1-2.4-1.5-4.1-1.5H330v11.3h2.2C334,401.5,335.3,401,336.3,400z"/>
	<path class="st11" d="M349.4,404.5c-1.5-0.8-2.7-2-3.6-3.5c-0.9-1.5-1.3-3.2-1.3-5.1c0-1.9,0.4-3.6,1.3-5.1
		c0.9-1.5,2.1-2.7,3.6-3.5c1.5-0.8,3.2-1.3,5-1.3c1.8,0,3.5,0.4,5,1.3c1.5,0.8,2.7,2,3.6,3.5c0.9,1.5,1.3,3.2,1.3,5.1
		c0,1.9-0.4,3.6-1.3,5.1c-0.9,1.5-2.1,2.7-3.6,3.5c-1.5,0.8-3.2,1.3-5,1.3C352.5,405.7,350.9,405.3,349.4,404.5z M358,399.9
		c0.9-1,1.4-2.4,1.4-4c0-1.7-0.5-3-1.4-4c-0.9-1-2.2-1.5-3.7-1.5c-1.6,0-2.8,0.5-3.7,1.5c-0.9,1-1.4,2.4-1.4,4c0,1.7,0.5,3,1.4,4
		c0.9,1,2.2,1.5,3.7,1.5C355.9,401.4,357.1,400.9,358,399.9z"/>
</g>
<g>
	<g id="lock-outline">
		<path class="st11" d="M270.1,317.1h-3.3v-6.6c0-9.2-7.2-16.4-16.4-16.4s-16.4,7.2-16.4,16.4v6.6h-3.3c-3.6,0-6.6,3-6.6,6.6v32.8
			c0,3.6,3,6.6,6.6,6.6h39.4c3.6,0,6.6-3,6.6-6.6v-32.8C276.7,320.1,273.7,317.1,270.1,317.1z M250.4,300.4
			c5.6,0,10.2,4.6,10.2,10.2v6.6h-20v-6.6h-0.3C240.2,305,244.8,300.4,250.4,300.4z M270.1,356.5h-39.4v-32.8h39.4V356.5z
			 M250.4,346.7c3.6,0,6.6-3,6.6-6.6s-3-6.6-6.6-6.6s-6.6,3-6.6,6.6S246.8,346.7,250.4,346.7z"/>
	</g>
</g>
</svg>
