<?xml version="1.0" encoding="utf-8"?>
<!-- Generator: Adobe Illustrator 22.0.1, SVG Export Plug-In . SVG Version: 6.00 Build 0)  -->
<svg version="1.1" xmlns="http://www.w3.org/2000/svg" xmlns:xlink="http://www.w3.org/1999/xlink" x="0px" y="0px" width="500px"
	 height="500px" viewBox="0 0 500 500" style="enable-background:new 0 0 500 500;" xml:space="preserve">
<style type="text/css">
	.st0{opacity:0.1;fill:#231F20;}
	.st1{fill:url(#SVGID_1_);}
	.st2{opacity:0.2;}
	.st3{fill:#231F20;}
	.st4{fill:#F1F2F2;}
	.st5{fill:#E6E7E8;}
	.st6{fill:#FFFFFF;}
	.st7{fill:#414042;}
	.st8{fill:#B2875D;}
	.st9{opacity:0.1;}
	.st10{fill:#C49A6C;}
</style>
<g id="BACKGROUND_2">
</g>
<g id="BACKGROUND_1">
	<g>
		<g>
			<path class="st0" d="M480,430.5c0,10.2-101.6,8.9-227,8.9c-125.4,0-227,1.3-227-8.9c0-10.2,101.6-18.4,227-18.4
				C378.4,412.1,480,420.3,480,430.5z"/>
			<g>
				<g>
					<linearGradient id="SVGID_1_" gradientUnits="userSpaceOnUse" x1="117.7029" y1="148.1275" x2="391.2206" y2="148.1275">
						<stop  offset="0" style="stop-color:#474FD6"/>
						<stop  offset="1" style="stop-color:#8993EF"/>
					</linearGradient>
					<path class="st1" d="M349.5,108.2c0-0.4,0-0.8,0-1.3c0-23.9-19.4-43.3-43.3-43.3c-5.6,0-10.9,1.1-15.7,3
						c-14.2-19.9-37.5-32.9-63.8-32.9c-41.1,0-74.8,31.7-78,71.9c-18.9,14.6-31,37.5-31,63.2c0,44.1,35.8,79.9,79.9,79.9
						c2.1,0,4.2-0.1,6.3-0.3c13.2,8.9,29.1,14.1,46.2,14.1c18.5,0,35.6-6.1,49.4-16.4c5.8,1.4,11.8,2.2,18,2.2
						c40.7,0,73.8-33,73.8-73.8C391.2,145.4,374.2,120.1,349.5,108.2z"/>
					<g>
						<g class="st2">
							<polygon class="st3" points="291.9,86.3 292,86.3 192.8,86.3 192.8,241.1 337.1,241.8 318.9,113.5 							"/>
						</g>
						<g>
							<polygon class="st4" points="286.4,84.5 286.5,84.4 187.3,84.4 187.3,239.3 316,239.3 316,114 							"/>
						</g>
						<g>
							<rect x="194.7" y="96.4" class="st5" width="98.3" height="1.7"/>
							<rect x="194.7" y="111.6" class="st5" width="114.2" height="1.7"/>
							<rect x="194.7" y="126.8" class="st5" width="114.2" height="1.7"/>
							<rect x="194.7" y="142.1" class="st5" width="114.2" height="1.7"/>
							<rect x="194.7" y="157.3" class="st5" width="114.2" height="1.7"/>
							<rect x="194.7" y="172.5" class="st5" width="114.2" height="1.7"/>
							<rect x="194.7" y="187.7" class="st5" width="114.2" height="1.7"/>
							<rect x="194.7" y="203" class="st5" width="114.2" height="1.7"/>
							<rect x="194.7" y="218.2" class="st5" width="114.2" height="1.7"/>
							<rect x="194.7" y="233.4" class="st5" width="114.2" height="1.7"/>
						</g>
						<polygon class="st6" points="316,114 286.4,114 286.4,84.5 						"/>
						<g>
							<g>
								<g>
									<path class="st6" d="M241.3,139.4c0,10-8.1,18.1-18.1,18.1c-10,0-18.1-8.1-18.1-18.1c0-10,8.1-18.1,18.1-18.1
										C233.2,121.3,241.3,129.4,241.3,139.4z"/>
									<path class="st7" d="M236.6,139.4c0,7.4-6,13.4-13.4,13.4c-7.4,0-13.4-6-13.4-13.4c0-7.4,6-13.4,13.4-13.4
										C230.6,126,236.6,132,236.6,139.4z"/>
									<path class="st6" d="M223.7,130.2c0,2.5-2,4.6-4.6,4.6c-2.5,0-4.6-2-4.6-4.6c0-2.5,2-4.6,4.6-4.6
										C221.7,125.6,223.7,127.7,223.7,130.2z"/>
									<path class="st6" d="M216.8,139.7c0,1.3-1,2.3-2.3,2.3c-1.3,0-2.3-1-2.3-2.3c0-1.3,1-2.3,2.3-2.3
										C215.8,137.5,216.8,138.5,216.8,139.7z"/>
									<path class="st6" d="M223.1,145.9c0,1.9-1.6,3.5-3.5,3.5s-3.5-1.6-3.5-3.5c0-1.9,1.6-3.5,3.5-3.5S223.1,144,223.1,145.9z"
										/>
									<path class="st6" d="M234.8,141.6c-4,0.6-4.5,1.1-5.1,5.1c-0.6-4-1.1-4.5-5.1-5.1c4-0.6,4.5-1.1,5.1-5.1
										C230.3,140.5,230.8,141,234.8,141.6z"/>
								</g>
								<g>
									<path class="st6" d="M299.4,139.4c0,10-8.1,18.1-18.1,18.1s-18.1-8.1-18.1-18.1c0-10,8.1-18.1,18.1-18.1
										S299.4,129.4,299.4,139.4z"/>
									<path class="st7" d="M294.7,139.4c0,7.4-6,13.4-13.4,13.4c-7.4,0-13.4-6-13.4-13.4c0-7.4,6-13.4,13.4-13.4
										C288.7,126,294.7,132,294.7,139.4z"/>
									<path class="st6" d="M281.8,130.2c0,2.5-2,4.6-4.6,4.6c-2.5,0-4.6-2-4.6-4.6c0-2.5,2-4.6,4.6-4.6
										C279.8,125.6,281.8,127.7,281.8,130.2z"/>
									<path class="st6" d="M274.9,139.7c0,1.3-1,2.3-2.3,2.3c-1.3,0-2.3-1-2.3-2.3c0-1.3,1-2.3,2.3-2.3
										C273.9,137.5,274.9,138.5,274.9,139.7z"/>
									<path class="st6" d="M281.1,145.9c0,1.9-1.6,3.5-3.5,3.5s-3.5-1.6-3.5-3.5c0-1.9,1.6-3.5,3.5-3.5S281.1,144,281.1,145.9z"
										/>
									<path class="st6" d="M292.9,141.6c-4,0.6-4.5,1.1-5.1,5.1c-0.6-4-1.1-4.5-5.1-5.1c4-0.6,4.5-1.1,5.1-5.1
										C288.4,140.5,288.9,141,292.9,141.6z"/>
								</g>
							</g>
							<g>
								<g>
									<path class="st7" d="M275.9,191.1c-1.5,0-2.7-1.2-2.7-2.7c0-11.6-9.4-21-21-21c-11.6,0-21,9.4-21,21c0,1.5-1.2,2.7-2.7,2.7
										c-1.5,0-2.7-1.2-2.7-2.7c0-14.5,11.8-26.4,26.4-26.4c14.5,0,26.4,11.8,26.4,26.4C278.6,189.9,277.4,191.1,275.9,191.1z"/>
								</g>
							</g>
						</g>
					</g>
				</g>
				<g>
					<g>
						<g>
							<polygon class="st8" points="403.1,429.3 99.9,429.3 99.9,195.6 403.1,195.6 							"/>
						</g>
						<g>
							<g class="st9">
								<rect x="100.1" y="293.4" class="st6" width="30.8" height="16.9"/>
							</g>
							<g class="st9">
								<rect x="100.1" y="332.7" class="st6" width="30.8" height="16.9"/>
							</g>
							<g class="st9">
								<rect x="100.1" y="372" class="st6" width="30.8" height="16.9"/>
							</g>
							<g class="st9">
								<rect x="372.3" y="293.4" class="st6" width="30.8" height="16.9"/>
							</g>
							<g class="st9">
								<rect x="372.3" y="332.7" class="st6" width="30.8" height="16.9"/>
							</g>
							<g class="st9">
								<rect x="372.3" y="372" class="st6" width="30.8" height="16.9"/>
							</g>
						</g>
					</g>
					<g>
						<g>
							<polygon class="st10" points="461.8,258.1 399.4,199.5 403.1,195.6 465.5,254.2 							"/>
						</g>
						<g>
							<polygon class="st10" points="41.3,258.1 103.7,199.5 99.9,195.6 37.6,254.2 							"/>
						</g>
						<g>
							<polygon class="st10" points="423.4,273.3 79.7,273.3 99.9,195.6 403.1,195.6 							"/>
						</g>
					</g>
				</g>
			</g>
		</g>
		<g>
			<path class="st7" d="M181.2,363.1v-17.5h-29.9v-5.7l28.7-41.1h9.4v40h9v6.8h-9v17.5H181.2z M181.2,338.7v-21.5
				c0-3.4,0.1-6.7,0.3-10.1h-0.3c-2,3.8-3.6,6.5-5.3,9.5l-15.7,21.9v0.2H181.2z"/>
			<path class="st7" d="M247.8,330.2c0,21.9-8.1,34-22.4,34c-12.6,0-21.1-11.8-21.3-33.1c0-21.6,9.3-33.5,22.4-33.5
				C240.1,297.6,247.8,309.7,247.8,330.2z M212.9,331.2c0,16.7,5.1,26.2,13.1,26.2c8.9,0,13.2-10.4,13.2-26.8
				c0-15.8-4.1-26.2-13.1-26.2C218.4,304.4,212.9,313.7,212.9,331.2z"/>
			<path class="st7" d="M282.8,363.1v-17.5h-29.9v-5.7l28.7-41.1h9.4v40h9v6.8h-9v17.5H282.8z M282.8,338.7v-21.5
				c0-3.4,0.1-6.7,0.3-10.1h-0.3c-2,3.8-3.6,6.5-5.3,9.5l-15.7,21.9v0.2H282.8z"/>
		</g>
		<g>
			<path class="st7" d="M160.9,382c0.9-0.1,2-0.3,3.5-0.3c1.8,0,3.1,0.4,3.9,1.2c0.8,0.7,1.2,1.7,1.2,2.9c0,1.3-0.4,2.3-1.1,3
				c-1,1-2.5,1.5-4.3,1.5c-0.5,0-1,0-1.5-0.1v5.6h-1.8V382z M162.7,388.8c0.4,0.1,0.9,0.1,1.5,0.1c2.2,0,3.5-1.1,3.5-3
				c0-1.9-1.3-2.7-3.3-2.7c-0.8,0-1.4,0.1-1.7,0.1V388.8z"/>
			<path class="st7" d="M172.4,391.5l-1.5,4.4h-1.9l4.8-14h2.2l4.8,14h-1.9l-1.5-4.4H172.4z M177,390.1l-1.4-4
				c-0.3-0.9-0.5-1.7-0.7-2.6h0c-0.2,0.8-0.4,1.7-0.7,2.5l-1.4,4.1H177z"/>
			<path class="st7" d="M193.3,395.3c-0.8,0.3-2.4,0.8-4.3,0.8c-2.1,0-3.9-0.5-5.2-1.9c-1.2-1.2-2-3-2-5.2c0-4.2,2.9-7.2,7.6-7.2
				c1.6,0,2.9,0.4,3.5,0.6l-0.4,1.5c-0.7-0.3-1.7-0.6-3.1-0.6c-3.4,0-5.6,2.1-5.6,5.6c0,3.6,2.1,5.7,5.4,5.7c1.2,0,2-0.2,2.4-0.4
				V390h-2.8v-1.5h4.6V395.3z"/>
			<path class="st7" d="M197.8,381.9v14H196v-14H197.8z"/>
			<path class="st7" d="M201,395.9v-14h2l4.5,7.1c1,1.6,1.9,3.1,2.5,4.6l0,0c-0.2-1.9-0.2-3.6-0.2-5.8v-5.9h1.7v14h-1.8l-4.5-7.1
				c-1-1.6-1.9-3.2-2.6-4.7l-0.1,0c0.1,1.8,0.1,3.5,0.1,5.8v6H201z"/>
			<path class="st7" d="M216.9,391.5l-1.5,4.4h-1.9l4.8-14h2.2l4.8,14h-1.9l-1.5-4.4H216.9z M221.5,390.1l-1.4-4
				c-0.3-0.9-0.5-1.7-0.7-2.6h0c-0.2,0.8-0.4,1.7-0.7,2.5l-1.4,4.1H221.5z"/>
			<path class="st7" d="M231.8,395.9v-14h2l4.5,7.1c1,1.6,1.9,3.1,2.5,4.6l0,0c-0.2-1.9-0.2-3.6-0.2-5.8v-5.9h1.7v14h-1.8l-4.5-7.1
				c-1-1.6-1.9-3.2-2.6-4.7l-0.1,0c0.1,1.8,0.1,3.5,0.1,5.8v6H231.8z"/>
			<path class="st7" d="M257.5,388.7c0,4.8-2.9,7.4-6.5,7.4c-3.7,0-6.3-2.9-6.3-7.1c0-4.5,2.8-7.4,6.5-7.4
				C255,381.6,257.5,384.6,257.5,388.7z M246.6,389c0,3,1.6,5.7,4.5,5.7c2.9,0,4.5-2.6,4.5-5.8c0-2.8-1.5-5.7-4.5-5.7
				C248.1,383.1,246.6,385.9,246.6,389z"/>
			<path class="st7" d="M271.5,389.3H266v5.1h6.1v1.5h-7.9v-14h7.6v1.5H266v4.4h5.4V389.3z"/>
			<path class="st7" d="M282.1,395.9l-1.8-3.1c-0.7-1.2-1.2-2-1.6-2.8h0c-0.4,0.8-0.8,1.6-1.5,2.8l-1.7,3.1h-2.1l4.3-7.1l-4.1-6.9
				h2.1l1.9,3.3c0.5,0.9,0.9,1.6,1.3,2.4h0.1c0.4-0.8,0.7-1.5,1.3-2.4l1.9-3.3h2.1l-4.3,6.8l4.4,7.2H282.1z"/>
			<path class="st7" d="M288.1,381.9v14h-1.8v-14H288.1z"/>
			<path class="st7" d="M291,393.7c0.8,0.5,2,0.9,3.2,0.9c1.9,0,2.9-1,2.9-2.4c0-1.3-0.7-2.1-2.6-2.8c-2.3-0.8-3.7-2-3.7-4
				c0-2.2,1.8-3.8,4.5-3.8c1.4,0,2.5,0.3,3.1,0.7l-0.5,1.5c-0.5-0.3-1.4-0.7-2.7-0.7c-1.9,0-2.6,1.1-2.6,2.1c0,1.3,0.9,2,2.8,2.7
				c2.4,0.9,3.6,2.1,3.6,4.1c0,2.2-1.6,4-4.9,4c-1.4,0-2.8-0.4-3.6-0.9L291,393.7z"/>
			<path class="st7" d="M304.2,383.4h-4.3v-1.5h10.4v1.5H306v12.5h-1.8V383.4z"/>
			<path class="st7" d="M319.1,389.3h-5.4v5.1h6.1v1.5h-7.9v-14h7.6v1.5h-5.8v4.4h5.4V389.3z"/>
		</g>
	</g>
</g>
<g id="DESIGNED_BY_FREEPIK">
</g>
</svg>
