<?xml version="1.0" encoding="utf-8"?>
<!-- Generator: Adobe Illustrator 22.0.1, SVG Export Plug-In . SVG Version: 6.00 Build 0)  -->
<svg version="1.1" id="Layer_1" xmlns="http://www.w3.org/2000/svg" xmlns:xlink="http://www.w3.org/1999/xlink" x="0px" y="0px"
	 width="500px" height="500px" viewBox="0 0 500 500" style="enable-background:new 0 0 500 500;" xml:space="preserve">
<style type="text/css">
	.st0{fill:#2B2B2B;}
	.st1{fill:#666666;}
</style>
<g>
	<rect x="1" y="1" class="st0" width="500" height="500"/>
</g>
<path class="st1" d="M426.6,191.5c-0.8-2.9-2.6-5.3-5.2-6.8l-117.6-67.9c-5.4-3.1-12.2-1.2-15.3,4.1L260,170.2h-23.9
	c-2.7,0-4.9,2.2-4.9,4.9c0,2.7,2.2,4.9,4.9,4.9h78.3c0.7,0,1.4,0.6,1.4,1.4v148.3c0,0.8-0.6,1.4-1.4,1.4H178.8
	c-0.7,0-1.4-0.6-1.4-1.4V181.4c0-0.8,0.6-1.4,1.4-1.4h34.9c2.7,0,4.9-2.2,4.9-4.9c0-2.7-2.2-4.9-4.9-4.9h-34.9
	c-6.2,0-11.2,5-11.2,11.2v54.3l-71.9,41.5c-5.4,3.1-7.2,10-4.1,15.3l74.2,128.5c2.1,3.6,5.9,5.6,9.7,5.6c1.9,0,3.8-0.5,5.6-1.5
	l49.5-28.6c2.4-1.4,3.2-4.4,1.8-6.7c-1.4-2.4-4.4-3.2-6.7-1.8l-49.5,28.6c-0.6,0.4-1.5,0.2-1.9-0.5l-74.2-128.5
	c-0.4-0.7-0.2-1.5,0.5-1.9l67-38.7v10.1l-52,30c-2.4,1.4-3.2,4.4-1.8,6.7l46.6,80.7c0.7,1.1,1.7,2,3,2.3c0.4,0.1,0.8,0.2,1.3,0.2
	c0.9,0,1.7-0.2,2.5-0.7l60.7-35.1c0.2-0.1,0.4-0.3,0.6-0.4h62.3l3.4,5.9c0.4,0.6,0.2,1.5-0.5,1.9l-47.9,27.7
	c-2.4,1.4-3.2,4.4-1.8,6.7c0.9,1.6,2.6,2.5,4.3,2.5c0.8,0,1.7-0.2,2.5-0.7l47.9-27.7c5.4-3.1,7.2-10,4.1-15.3l-0.6-1h12.4
	c6.2,0,11.2-5,11.2-11.2v-3.1l10.3,5.9c1.7,1,3.7,1.5,5.6,1.5c1,0,2-0.1,2.9-0.4c2.9-0.8,5.3-2.6,6.8-5.2l36.3-62.9
	c0.8-1.4,0.9-3,0.3-4.4c-0.6-1.4-1.9-2.5-3.4-2.8l-0.1,0c-2.6-0.7-5.3,0.9-6,3.5v0l-35.7,61.8c-0.4,0.6-1.2,0.9-1.9,0.5l-15.2-8.8
	v-45.3l24.2,14c0.8,0.4,1.6,0.7,2.5,0.7c1.7,0,3.4-0.9,4.3-2.5l46.6-80.7c0.7-1.1,0.8-2.5,0.5-3.7c-0.3-1.3-1.2-2.3-2.3-3
	l-96.2-55.6c-2.4-1.4-5.4-0.6-6.7,1.8l-16.9,29.3h-10.1l25.6-44.3c0.4-0.7,1.2-0.9,1.9-0.5l117.6,67.9c0.4,0.2,0.6,0.6,0.6,0.8
	c0.1,0.2,0.1,0.6-0.1,1l-26.5,46c-1.4,2.4-0.6,5.4,1.8,6.7c0.8,0.4,1.6,0.7,2.5,0.7c1.7,0,3.4-0.9,4.3-2.5l26.5-46
	C427,197.5,427.4,194.4,426.6,191.5z M166.4,365.4l-41.6-72.1l42.7-24.7v61.1c0,6.2,5,11.2,11.2,11.2h30L166.4,365.4z M304.5,150.1
	l87.7,50.6l-41.6,72.1l-24.8-14.3v-77.1c0-6.2-5-11.2-11.2-11.2h-21.6L304.5,150.1z"/>
<path class="st1" d="M186.1,193.7v93.2c0,2.7,2.2,4.9,4.9,4.9h111.1c2.7,0,4.9-2.2,4.9-4.9v-93.2c0-2.7-2.2-4.9-4.9-4.9H191.1
	C188.3,188.8,186.1,191,186.1,193.7z M196,198.7h101.3V282H196V198.7z"/>
<path class="st1" d="M167.8,131.8L167.8,131.8c2.8,0,5-2.2,5-4.9l0-2c0-2.7-2.2-5-4.9-5c0,0,0,0-0.1,0c-2.7,0-4.9,2.2-4.9,4.9l0,2
	C162.9,129.6,165.1,131.8,167.8,131.8z"/>
<path class="st1" d="M167.6,153.9L167.6,153.9c2.8,0,5-2.2,5-4.9l0-2c0-2.7-2.2-5-4.9-5c-2.7,0-5,2.2-5,4.9l0,2
	C162.7,151.6,164.9,153.8,167.6,153.9z"/>
<path class="st1" d="M177.7,141.9l2,0h0c2.7,0,4.9-2.2,4.9-4.9c0-2.7-2.2-5-4.9-5l-2,0c0,0,0,0,0,0c-2.7,0-4.9,2.2-4.9,4.9
	C172.8,139.7,175,141.9,177.7,141.9z"/>
<path class="st1" d="M155.7,141.7l2,0h0c2.7,0,4.9-2.2,4.9-4.9c0-2.7-2.2-5-4.9-5l-2,0c0,0,0,0-0.1,0c-2.7,0-4.9,2.2-4.9,4.9
	C150.8,139.5,153,141.7,155.7,141.7z"/>
<path class="st1" d="M140.4,171.3L140.4,171.3c2.8,0,5-2.2,5-4.9l0-2c0-2.7-2.2-5-4.9-5c0,0,0,0-0.1,0c-2.7,0-4.9,2.2-4.9,4.9l0,2
	C135.5,169,137.7,171.3,140.4,171.3z"/>
<path class="st1" d="M140.2,193.3L140.2,193.3c2.8,0,5-2.2,5-4.9l0-2c0-2.7-2.2-5-4.9-5c0,0,0,0,0,0c-2.7,0-4.9,2.2-4.9,4.9l0,2
	C135.3,191.1,137.5,193.3,140.2,193.3z"/>
<path class="st1" d="M150.3,181.4l2,0h0.1c2.7,0,4.9-2.2,4.9-4.9c0-2.7-2.2-5-4.9-5l-2,0c0,0,0,0,0,0c-2.7,0-4.9,2.2-4.9,4.9
	C145.4,179.1,147.6,181.3,150.3,181.4z"/>
<path class="st1" d="M128.3,181.2l2,0h0c2.7,0,4.9-2.2,4.9-4.9c0-2.7-2.2-5-4.9-5l-2,0c0,0,0,0,0,0c-2.7,0-4.9,2.2-4.9,4.9
	C123.4,178.9,125.6,181.2,128.3,181.2z"/>
<path class="st1" d="M362.2,354.2C362.2,354.2,362.2,354.2,362.2,354.2c-2.8,0-5,2.2-5,4.9l0,2c0,2.7,2.2,5,4.9,5h0.1
	c2.7,0,4.9-2.2,4.9-4.9l0-2C367.1,356.5,364.9,354.3,362.2,354.2z"/>
<path class="st1" d="M362,376.3C362,376.3,362,376.3,362,376.3c-2.8,0-5,2.2-5,4.9l0,2c0,2.7,2.2,5,4.9,5h0c2.7,0,4.9-2.2,4.9-4.9
	l0-2C367,378.5,364.8,376.3,362,376.3z"/>
<path class="st1" d="M374.1,366.3l-2,0c0,0,0,0,0,0c-2.7,0-4.9,2.2-4.9,4.9c0,2.7,2.2,5,4.9,5l2,0h0c2.7,0,4.9-2.2,4.9-4.9
	C379.1,368.6,376.9,366.4,374.1,366.3z"/>
<path class="st1" d="M352.1,366.2l-2,0c0,0,0,0,0,0c-2.7,0-4.9,2.2-4.9,4.9c0,2.7,2.2,5,4.9,5l2,0h0c2.7,0,4.9-2.2,4.9-4.9
	C357,368.4,354.8,366.2,352.1,366.2z"/>
</svg>
