<?xml version="1.0" encoding="iso-8859-1"?>
<!-- Generator: Adobe Illustrator 19.0.0, SVG Export Plug-In . SVG Version: 6.00 Build 0)  -->
<svg version="1.1" id="Capa_1" xmlns="http://www.w3.org/2000/svg" xmlns:xlink="http://www.w3.org/1999/xlink" x="0px" y="0px"
	 viewBox="0 0 414.775 414.775" style="enable-background:new 0 0 414.775 414.775;" xml:space="preserve">
<g>
	<g>
		<g>
			<path d="M249.744,29.739l7.68,3.2l4,7.36c0.355,0.665,0.831,1.258,1.404,1.747c2.536,2.167,6.349,1.868,8.516-0.667l5.72-6.12
				l8.2-1.52c0.707-0.137,1.384-0.4,1.998-0.776c2.846-1.74,3.742-5.458,2.002-8.304l-4.4-7.24l1.08-8h-0.24
				c0.175-0.862,0.161-1.751-0.043-2.606c-0.774-3.245-4.032-5.248-7.277-4.474l-8,1.92l-7.04-3.36
				c-0.812-0.498-1.73-0.799-2.679-0.878c-3.346-0.277-6.284,2.211-6.561,5.558l-0.68,8.36l-5.56,5.84
				c-0.615,0.586-1.099,1.296-1.421,2.082C245.179,24.947,246.657,28.475,249.744,29.739z M264.184,20.899
				c0.954-1.001,1.534-2.301,1.64-3.68v-1.72l1.52,0.72c1.243,0.603,2.656,0.758,4,0.44l1.52-0.52l-0.24,1.68h0
				c-0.157,1.583,0.318,3.164,1.32,4.4l0.72,1.16l-1.68,0.32c-1.37,0.239-2.614,0.946-3.52,2l-1.08,1.28l-0.8-1.48
				c-0.657-1.225-1.717-2.186-3-2.72l-1.56-0.64L264.184,20.899z"/>
			<path d="M312.424,61.059l16.76,7l8.64,16c0.488,0.94,1.159,1.774,1.972,2.453c3.391,2.832,8.436,2.378,11.268-1.013l12-13.8
				l17.92-3.28c0.959-0.172,1.878-0.518,2.712-1.02c3.785-2.279,5.007-7.195,2.728-10.98l-9.44-15.56l2.36-17.6
				c0.277-1.309,0.221-2.667-0.162-3.949c-1.267-4.233-5.725-6.638-9.958-5.371l-17.76,4l-15.76-7.56
				c-1.037-0.604-2.196-0.966-3.391-1.061c-4.404-0.35-8.259,2.937-8.609,7.341l-1.48,18.2l-12.32,12.92
				c-0.864,0.808-1.537,1.797-1.973,2.896C306.305,54.783,308.316,59.432,312.424,61.059z M335.984,44.019
				c1.272-1.326,2.049-3.049,2.2-4.88l0.76-9.32l8.4,4c1.626,0.751,3.457,0.934,5.2,0.52l9.12-2.16l-1.24,9.24l0.04,0.08
				c-0.255,2.026,0.275,4.072,1.48,5.72l4.6,7.6l-9.2,1.68c-1.823,0.325-3.477,1.272-4.68,2.68l-6.08,7.04l-4.44-8.2
				c-0.87-1.641-2.285-2.928-4-3.64l-8.6-3.6L335.984,44.019z"/>
			<path d="M396.984,149.659l-5.64-9.28l1.68-10.4l-0.4,0.16c0.175-0.862,0.161-1.751-0.043-2.606
				c-0.774-3.245-4.032-5.248-7.277-4.474l-10.64,2.52l-9.32-4.48c-0.774-0.452-1.639-0.726-2.531-0.805
				c-3.345-0.294-6.295,2.18-6.589,5.525l-0.88,10.84l-7.12,7.68c-0.615,0.586-1.099,1.296-1.421,2.082
				c-1.264,3.087,0.214,6.614,3.301,7.878l10.04,4l5.16,9.56c0.355,0.665,0.831,1.258,1.404,1.747
				c2.536,2.167,6.349,1.868,8.516-0.667l7.08-8.24l10.68-1.96c0.707-0.138,1.384-0.4,1.998-0.776
				C397.828,156.222,398.724,152.505,396.984,149.659z M378.064,149.219c-1.37,0.239-2.614,0.946-3.52,2l-2.76,3.2l-2-3.72
				c-0.657-1.225-1.717-2.186-3-2.72l-4-1.64l2.92-3.04c0.954-1.001,1.534-2.301,1.64-3.68l0.56-4.04l4,1.84
				c1.243,0.603,2.656,0.758,4,0.44l4-0.96l-0.56,4h-0.36c-0.194,1.494,0.177,3.006,1.04,4.24l2.04,3.32L378.064,149.219z"/>
			<path d="M281.493,69.454c-3.345-0.294-6.295,2.18-6.589,5.525l-0.68,8.36l-5.56,5.84c-0.615,0.586-1.099,1.296-1.421,2.082
				c-1.264,3.087,0.214,6.614,3.301,7.878l7.68,3.2l4,7.36c0.355,0.665,0.831,1.258,1.404,1.747
				c2.536,2.167,6.349,1.868,8.516-0.667l5.44-6.32l8-1.44c0.836-0.114,1.64-0.403,2.358-0.847c2.838-1.754,3.716-5.476,1.962-8.313
				l-4.32-7.12l1.08-8l-0.28,0.04c0.16-0.828,0.146-1.68-0.042-2.502c-0.746-3.274-4.004-5.324-7.278-4.578l-8,1.92l-7.04-3.36
				C283.25,69.807,282.385,69.532,281.493,69.454z M286.344,86.379v-1.72l1.56,0.76c1.243,0.603,2.656,0.758,4,0.44l1.68-0.4
				l-0.24,1.68l0,0c-0.148,1.391,0.191,2.791,0.96,3.96l0.88,1.44l-1.68,0.32c-1.37,0.239-2.614,0.946-3.52,2l-1.08,1.28l-0.8-1.48
				c-0.657-1.225-1.717-2.186-3-2.72l-1.56-0.64l1.16-1.24C285.659,89.058,286.238,87.758,286.344,86.379z"/>
			<path d="M195.344,60.139c-1.269-0.788-2.608-1.458-4-2c-6.624-2.424-13.943-2.093-20.32,0.92c-6.44,2.96-11.595,8.144-14.52,14.6
				l-137.16,304.6v0c-1.638,3.661-2.47,7.63-2.44,11.64c0.22,4.428,1.364,8.761,3.36,12.72c3.3,5.548,8.617,9.604,14.84,11.32
				c6.268,1.608,12.907,0.883,18.68-2.04l54.44-31.24l12.64-7.52l0.8-0.48l222.16-127.6c2.844-1.973,5.581-4.096,8.2-6.36
				c4.779-5.212,7.458-12.009,7.52-19.08c0.073-6.743-2.598-13.226-7.4-17.96C352.024,201.539,196.504,60.819,195.344,60.139z
				 M46.664,397.299c-2.28,1.176-4.908,1.488-7.4,0.88c-2.108-0.523-3.913-1.88-5-3.76l-0.24-0.48
				c-0.639-1.307-0.968-2.745-0.96-4.2c0.019-1.671,0.387-3.319,1.08-4.84l32.68-72.68l3.52,71.48L46.664,397.299z M100.144,366.659
				l-14.08,8l-4.68-94.76l19.52-43.44l1.68-3.8l6.36,128.96L100.144,366.659z M124.664,352.419l-7.52-152l39.28-87.24l10.56,214.76
				L124.664,352.419z M192.184,313.499l-9.44,5.44l-11.76-238.28l0.36-0.36c1.255-2.859,3.479-5.182,6.28-6.56
				c2.494-1.227,5.377-1.4,8-0.48c0.485,0.17,0.954,0.384,1.4,0.64c0.32,0.32,7.48,6.76,7.48,6.76l11.12,225.12L192.184,313.499z
				 M221.344,296.939l-10-201.16l45.68,41.32l6.76,135.28L221.344,296.939z M279.344,263.539l-5.48-111.32l5.92,5.36l18.72,17.16
				l3.72,75.64L279.344,263.539z M338.344,229.459c-0.56,0.44-2.36,1.64-2.6,1.64l-17.88,10.28l-2.52-51.32l25.12,22.6l0.48,0.68
				c1.588,1.7,2.45,3.954,2.4,6.28C343.059,223.435,341.259,226.979,338.344,229.459z"/>
		</g>
	</g>
</g>
<g>
</g>
<g>
</g>
<g>
</g>
<g>
</g>
<g>
</g>
<g>
</g>
<g>
</g>
<g>
</g>
<g>
</g>
<g>
</g>
<g>
</g>
<g>
</g>
<g>
</g>
<g>
</g>
<g>
</g>
</svg>
