<?xml version="1.0" encoding="utf-8"?>
<!-- Generator: Adobe Illustrator 22.0.1, SVG Export Plug-In . SVG Version: 6.00 Build 0)  -->
<svg version="1.1" id="Layer_1" xmlns="http://www.w3.org/2000/svg" xmlns:xlink="http://www.w3.org/1999/xlink" x="0px" y="0px"
	 width="500px" height="500px" viewBox="0 0 500 500" style="enable-background:new 0 0 500 500;" xml:space="preserve">
<style type="text/css">
	.st0{fill:url(#SVGID_1_);}
	.st1{opacity:0.2;}
	.st2{fill:#231F20;}
	.st3{fill:#F1F2F2;}
	.st4{fill:#E6E7E8;}
	.st5{fill:#FFFFFF;}
	.st6{fill:#414042;}
</style>
<g id="BACKGROUND_2">
</g>
<g id="BACKGROUND_1">
	<g>
		<g>
			<g>
				
					<linearGradient id="SVGID_1_" gradientUnits="userSpaceOnUse" x1="43.2287" y1="257.4048" x2="460.5799" y2="257.4048" gradientTransform="matrix(1 0 0 -1 0 500)">
					<stop  offset="0" style="stop-color:#474FD6"/>
					<stop  offset="1" style="stop-color:#8993EF"/>
				</linearGradient>
				<path class="st0" d="M396.8,181.7c0-0.6,0-1.2,0-2c0-36.5-29.6-66.1-66.1-66.1c-8.5,0-16.6,1.7-23.9,4.6
					c-21.7-30.4-57.2-50.2-97.3-50.2c-62.7,0-114.1,48.4-119,109.7C61.7,200,43.2,235,43.2,274.2c0,67.3,54.6,121.9,121.9,121.9
					c3.2,0,6.4-0.2,9.6-0.5c20.1,13.6,44.4,21.5,70.5,21.5c28.2,0,54.3-9.3,75.4-25c8.8,2.1,18,3.4,27.5,3.4
					c62.1,0,112.6-50.3,112.6-112.6C460.4,238.5,434.5,199.9,396.8,181.7z"/>
				<g>
					<g class="st1">
						<polygon class="st2" points="309,148.3 309.1,148.3 157.8,148.3 157.8,384.5 377.9,385.5 350.1,189.8 						"/>
					</g>
					<g>
						<polygon class="st3" points="300.6,145.6 300.7,145.4 149.4,145.4 149.4,381.7 345.7,381.7 345.7,190.6 						"/>
					</g>
					<g>
						<rect x="160.7" y="163.7" class="st4" width="149.9" height="2.6"/>
						<rect x="160.7" y="186.9" class="st4" width="174.2" height="2.6"/>
						<rect x="160.7" y="210.1" class="st4" width="174.2" height="2.6"/>
						<rect x="160.7" y="233.4" class="st4" width="174.2" height="2.6"/>
						<rect x="160.7" y="256.6" class="st4" width="174.2" height="2.6"/>
						<rect x="160.7" y="279.8" class="st4" width="174.2" height="2.6"/>
						<rect x="160.7" y="303" class="st4" width="174.2" height="2.6"/>
						<rect x="160.7" y="326.3" class="st4" width="174.2" height="2.6"/>
						<rect x="160.7" y="349.5" class="st4" width="174.2" height="2.6"/>
						<rect x="160.7" y="372.7" class="st4" width="174.2" height="2.6"/>
					</g>
					<polygon class="st5" points="345.7,190.6 300.6,190.6 300.6,145.6 					"/>
					<g>
						<g>
							<g>
								<path class="st5" d="M231.8,229.3c0,15.3-12.4,27.6-27.6,27.6c-15.3,0-27.6-12.4-27.6-27.6c0-15.3,12.4-27.6,27.6-27.6
									C219.4,201.7,231.8,214.1,231.8,229.3z"/>
								<path class="st6" d="M224.6,229.3c0,11.3-9.2,20.4-20.4,20.4s-20.4-9.2-20.4-20.4c0-11.3,9.2-20.4,20.4-20.4
									C215.4,208.9,224.6,218,224.6,229.3z"/>
								<path class="st5" d="M204.9,215.3c0,3.8-3.1,7-7,7c-3.8,0-7-3.1-7-7c0-3.8,3.1-7,7-7S204.9,211.5,204.9,215.3z"/>
								<path class="st5" d="M194.4,229.8c0,2-1.5,3.5-3.5,3.5s-3.5-1.5-3.5-3.5c0-2,1.5-3.5,3.5-3.5
									C192.9,226.4,194.4,228,194.4,229.8z"/>
								<path class="st5" d="M204,239.2c0,2.9-2.4,5.3-5.3,5.3c-2.9,0-5.3-2.4-5.3-5.3c0-2.9,2.4-5.3,5.3-5.3
									C201.6,233.9,204,236.3,204,239.2z"/>
								<path class="st5" d="M221.9,232.7c-6.1,0.9-6.9,1.7-7.8,7.8c-0.9-6.1-1.7-6.9-7.8-7.8c6.1-0.9,6.9-1.7,7.8-7.8
									C215,231,215.8,231.8,221.9,232.7z"/>
							</g>
							<g>
								<path class="st5" d="M320.4,229.3c0,15.3-12.4,27.6-27.6,27.6c-15.3,0-27.6-12.4-27.6-27.6c0-15.3,12.4-27.6,27.6-27.6
									C308,201.7,320.4,214.1,320.4,229.3z"/>
								<path class="st6" d="M313.2,229.3c0,11.3-9.2,20.4-20.4,20.4s-20.4-9.2-20.4-20.4c0-11.3,9.2-20.4,20.4-20.4
									C304.1,208.9,313.2,218,313.2,229.3z"/>
								<path class="st5" d="M293.5,215.3c0,3.8-3.1,7-7,7c-3.8,0-7-3.1-7-7c0-3.8,3.1-7,7-7S293.5,211.5,293.5,215.3z"/>
								<path class="st5" d="M283,229.8c0,2-1.5,3.5-3.5,3.5s-3.5-1.5-3.5-3.5c0-2,1.5-3.5,3.5-3.5C281.5,226.4,283,228,283,229.8z"
									/>
								<path class="st5" d="M292.5,239.2c0,2.9-2.4,5.3-5.3,5.3c-2.9,0-5.3-2.4-5.3-5.3c0-2.9,2.4-5.3,5.3-5.3
									C290,233.9,292.5,236.3,292.5,239.2z"/>
								<path class="st5" d="M310.5,232.7c-6.1,0.9-6.9,1.7-7.8,7.8c-0.9-6.1-1.7-6.9-7.8-7.8c6.1-0.9,6.9-1.7,7.8-7.8
									C303.6,231,304.4,231.8,310.5,232.7z"/>
							</g>
						</g>
						<g>
							<g>
								<path class="st6" d="M212.2,263.8c2.3,0,4.1,1.8,4.1,4.1c0,17.7,14.3,32,32,32s32-14.3,32-32c0-2.3,1.8-4.1,4.1-4.1
									c2.3,0,4.1,1.8,4.1,4.1c0,22.1-18,40.3-40.3,40.3c-22.1,0-40.3-18-40.3-40.3C208.1,265.6,210,263.8,212.2,263.8z"/>
							</g>
						</g>
					</g>
				</g>
			</g>
		</g>
	</g>
</g>
<g id="DESIGNED_BY_FREEPIK">
</g>
</svg>
