<?xml version="1.0" encoding="utf-8"?>
<!-- Generator: Adobe Illustrator 22.0.1, SVG Export Plug-In . SVG Version: 6.00 Build 0)  -->
<svg version="1.1" xmlns="http://www.w3.org/2000/svg" xmlns:xlink="http://www.w3.org/1999/xlink" x="0px" y="0px" width="500px"
	 height="500px" viewBox="0 0 500 500" style="enable-background:new 0 0 500 500;" xml:space="preserve">
<style type="text/css">
	.st0{opacity:0.2;}
	.st1{fill:#231F20;}
	.st2{fill:#F1F2F2;}
	.st3{fill:#E6E7E8;}
	.st4{fill:#FFFFFF;}
	.st5{fill:#414042;}
	.st6{fill:url(#SVGID_1_);}
	.st7{fill:url(#SVGID_2_);}
	.st8{fill:url(#SVGID_3_);}
	.st9{fill:url(#SVGID_4_);}
	.st10{opacity:0.29;}
</style>
<g id="Layer_1">
	<g id="BACKGROUND_2">
	</g>
	<g>
		<g class="st0">
			<polygon class="st1" points="215.5,7.6 215.6,7.6 59,7.6 59,252.1 286.9,253.2 258.1,50.6 			"/>
		</g>
		<g>
			<polygon class="st2" points="206.8,4.8 207,4.6 50.3,4.6 50.3,249.2 253.5,249.2 253.5,51.3 			"/>
		</g>
		<g>
			<rect x="62" y="23.6" class="st3" width="155.2" height="2.7"/>
			<rect x="62" y="47.6" class="st3" width="180.3" height="2.7"/>
			<rect x="62" y="71.6" class="st3" width="180.3" height="2.7"/>
			<rect x="62" y="95.7" class="st3" width="180.3" height="2.7"/>
			<rect x="62" y="119.7" class="st3" width="180.3" height="2.7"/>
			<rect x="62" y="143.7" class="st3" width="180.3" height="2.7"/>
			<rect x="62" y="167.7" class="st3" width="180.3" height="2.7"/>
			<rect x="62" y="191.9" class="st3" width="180.3" height="2.7"/>
			<rect x="62" y="215.9" class="st3" width="180.3" height="2.7"/>
			<rect x="62" y="239.9" class="st3" width="180.3" height="2.7"/>
		</g>
		<polygon class="st4" points="253.5,51.3 206.8,51.3 206.8,4.8 		"/>
		<g>
			<g>
				<g>
					<path class="st4" d="M135.6,91.5c0,15.8-12.8,28.6-28.6,28.6s-28.6-12.8-28.6-28.6S91.2,62.9,107,62.9
						C122.8,62.9,135.6,75.7,135.6,91.5z"/>
					<path class="st5" d="M128.2,91.5c0,11.7-9.5,21.2-21.2,21.2s-21.2-9.5-21.2-21.2s9.5-21.2,21.2-21.2
						C118.7,70.3,128.2,79.8,128.2,91.5z"/>
					<path class="st4" d="M107.8,76.9c0,3.9-3.2,7.3-7.3,7.3c-3.9,0-7.3-3.2-7.3-7.3c0-3.9,3.2-7.3,7.3-7.3
						C104.6,69.7,107.8,73,107.8,76.9z"/>
					<path class="st4" d="M96.9,91.9c0,2.1-1.6,3.6-3.6,3.6c-2.1,0-3.6-1.6-3.6-3.6c0-2.1,1.6-3.6,3.6-3.6
						C95.3,88.5,96.9,90,96.9,91.9z"/>
					<path class="st4" d="M106.8,101.7c0,3-2.5,5.5-5.5,5.5s-5.5-2.5-5.5-5.5c0-3,2.5-5.5,5.5-5.5S106.8,98.7,106.8,101.7z"/>
					<path class="st4" d="M125.3,94.9c-6.3,0.9-7.1,1.7-8.1,8.1c-0.9-6.3-1.7-7.1-8.1-8.1c6.3-0.9,7.1-1.7,8.1-8.1
						C118.2,93.2,119,94,125.3,94.9z"/>
				</g>
				<g>
					<path class="st4" d="M227.3,91.5c0,15.8-12.8,28.6-28.6,28.6s-28.6-12.8-28.6-28.6s12.8-28.6,28.6-28.6S227.3,75.7,227.3,91.5z
						"/>
					<path class="st5" d="M219.9,91.5c0,11.7-9.5,21.2-21.2,21.2c-11.7,0-21.2-9.5-21.2-21.2s9.5-21.2,21.2-21.2
						C210.4,70.3,219.9,79.8,219.9,91.5z"/>
					<path class="st4" d="M199.5,76.9c0,3.9-3.2,7.3-7.3,7.3c-3.9,0-7.3-3.2-7.3-7.3c0-3.9,3.2-7.3,7.3-7.3S199.5,73,199.5,76.9z"/>
					<path class="st4" d="M188.6,91.9c0,2.1-1.6,3.6-3.6,3.6c-2.1,0-3.6-1.6-3.6-3.6c0-2.1,1.6-3.6,3.6-3.6
						C187.1,88.5,188.6,90,188.6,91.9z"/>
					<path class="st4" d="M198.4,101.7c0,3-2.5,5.5-5.5,5.5s-5.5-2.5-5.5-5.5c0-3,2.5-5.5,5.5-5.5S198.4,98.7,198.4,101.7z"/>
					<path class="st4" d="M217.1,94.9c-6.3,0.9-7.1,1.7-8.1,8.1c-0.9-6.3-1.7-7.1-8.1-8.1c6.3-0.9,7.1-1.7,8.1-8.1
						C210,93.2,210.8,94,217.1,94.9z"/>
				</g>
			</g>
			<g>
				<g>
					<path class="st5" d="M115.4,127.1c2.4,0,4.3,1.9,4.3,4.3c0,18.3,14.8,33.2,33.2,33.2s33.2-14.8,33.2-33.2
						c0-2.4,1.9-4.3,4.3-4.3c2.4,0,4.3,1.9,4.3,4.3c0,22.9-18.6,41.7-41.7,41.7c-22.9,0-41.7-18.6-41.7-41.7
						C111.1,129,113,127.1,115.4,127.1z"/>
				</g>
			</g>
		</g>
	</g>
</g>
<g id="Layer_2">
	<g>
		<linearGradient id="SVGID_1_" gradientUnits="userSpaceOnUse" x1="269.0664" y1="354.1795" x2="454.7747" y2="354.1795">
			<stop  offset="0" style="stop-color:#474FD6"/>
			<stop  offset="1" style="stop-color:#8993EF"/>
		</linearGradient>
		<path class="st6" d="M298.2,491.5c17.1-2.8,151.4-89.7,155-93.4c3.6-3.7-0.1-181.3-0.1-181.3l-125.8,34.2l-58.3,55.5l3.7,70.3
			L298.2,491.5z"/>
		<linearGradient id="SVGID_2_" gradientUnits="userSpaceOnUse" x1="141.2388" y1="354.2127" x2="298.7312" y2="354.2127">
			<stop  offset="0" style="stop-color:#474FD6"/>
			<stop  offset="1" style="stop-color:#8993EF"/>
		</linearGradient>
		<path class="st7" d="M143.3,216.8c0,0-4.6,181.3,0,186.8c4.6,5.5,153.6,90.6,154.9,87.9c1.3-2.8-0.5-185-0.5-185L233,227
			L143.3,216.8z"/>
		<linearGradient id="SVGID_3_" gradientUnits="userSpaceOnUse" x1="143.2862" y1="214.9975" x2="453.1996" y2="214.9975">
			<stop  offset="0" style="stop-color:#474FD6"/>
			<stop  offset="1" style="stop-color:#8993EF"/>
		</linearGradient>
		<path class="st8" d="M143.3,216.8c-1.2,3.7,148,89.7,154.4,89.7c6.5,0,150.7-83.2,155.4-89.7c4.6-6.5-154.9-93.4-154.9-93.4
			S146.1,208.5,143.3,216.8z"/>
		<linearGradient id="SVGID_4_" gradientUnits="userSpaceOnUse" x1="221.4049" y1="191.467" x2="453.1996" y2="191.467">
			<stop  offset="0" style="stop-color:#474FD6"/>
			<stop  offset="1" style="stop-color:#8993EF"/>
		</linearGradient>
		<path class="st9" d="M221.4,167.2l162.7,92.2c34.6-20.1,66.8-39.6,69-42.6c4.6-6.5-154.9-93.4-154.9-93.4S259.9,144.9,221.4,167.2
			z"/>
		<g class="st10">
			<path class="st1" d="M177.7,366c-7.5,2.3-14.2,6.6-20.7,10.9c-3.7,2.4-0.4,8.3,3.5,6c6.8-3.9,14.1-6.8,20-12
				C182.7,368.9,180.4,365.2,177.7,366z"/>
			<path class="st1" d="M209.3,372.1c-18.8,2-38.1,10.2-53.5,21c-3.5,2.4-0.4,7.9,3.4,5.7c16.3-9.1,34.2-11.6,51.2-18.6
				C214.3,378.6,214.3,371.6,209.3,372.1z"/>
			<path class="st1" d="M194.5,397.1c-7.3,0.8-14.1,4.4-20.8,7.1c-4.9,2-3,9.8,2.2,8.1c6.8-2.2,14.7-3.8,20.5-8.2
				C199,402.2,198.6,396.6,194.5,397.1z"/>
			<path class="st1" d="M365.3,254.7c-14.6-15-35.6-25.1-53.5-35.7c-25.6-15.2-49.1-36.6-77.4-46.5c-1.7-0.6-2.8,2.1-1.2,2.9
				c24.7,13.3,45.6,31.5,69.4,45.9c10.3,6.2,20.4,13.6,31.1,19.1c10.2,5.2,18,14,28.4,18.6C364.7,260.1,367.5,257,365.3,254.7z"/>
			<path class="st1" d="M325.9,415.2c-6,4.4-10.9,9.5-15.5,15.3c-2.7,3.4,1.4,7.6,4.8,4.8c5.8-4.6,10.9-9.5,15.3-15.5
				C332.6,417.2,328.6,413.2,325.9,415.2z"/>
			<path class="st1" d="M344.8,418c-11.1,8.7-20.3,20.3-29.4,31c-2.9,3.4,1.8,8.2,4.9,4.9c9.7-10.3,20.9-19.6,29.7-30.7
				C353,419.5,348.5,415.1,344.8,418z"/>
			<path class="st1" d="M346.5,438.2c-2.1,2.4-4.2,4.8-6.5,7.1c-3.2,3.2,1.6,7.9,4.9,4.9c2.7-2.5,4.8-5,6.3-8.3
				C352.6,438.9,348.9,435.4,346.5,438.2z"/>
			<path class="st1" d="M189.5,203.1c-5.8-0.6-11.5,1.4-17,3c-4.6,1.4-2.6,8.8,2,7.2c5.2-1.7,10.5-3.1,15.8-4.5
				C193.8,208,192.7,203.4,189.5,203.1z"/>
			<path class="st1" d="M198.8,209.9c-7.2,1.3-14,5.3-20.3,8.9c-2.7,1.5-0.3,5.5,2.4,4.1c6.4-3.2,13.4-5.2,19.7-8.6
				C203.1,212.9,201.3,209.5,198.8,209.9z"/>
			<path class="st1" d="M197.4,225.3c-2.4-0.4-4.3,0-6.5,1.2c-2.4,1.3-0.3,4.9,2.1,3.6c1.3-0.7,2.9-1.1,4.4-1.3
				C199.2,228.5,199.1,225.6,197.4,225.3z"/>
			<path class="st1" d="M401.6,196.3c-13.4-11.5-29-19.1-44.8-26.9c-4.5-2.2-8.4,4.4-3.9,6.7c15.1,8,29.9,16.8,44.6,25.5
				C400.7,203.5,404.5,198.8,401.6,196.3z"/>
			<path class="st1" d="M429.2,210.6c-4-2.3-8.4-3.9-12-6.7c-1.7-1.3-4.3-0.3-5.2,1.4c-1.1,2-0.3,4,1.4,5.2c4,3,8.6,4.8,13.4,6
				C430.2,217.5,432.4,212.5,429.2,210.6z"/>
		</g>
	</g>
</g>
</svg>
