<?xml version="1.0" encoding="utf-8"?>
<!-- Generator: Adobe Illustrator 22.0.1, SVG Export Plug-In . SVG Version: 6.00 Build 0)  -->
<svg version="1.1" id="Capa_1" xmlns="http://www.w3.org/2000/svg" xmlns:xlink="http://www.w3.org/1999/xlink" x="0px" y="0px"
	 viewBox="0 0 1018 1018" style="enable-background:new 0 0 1018 1018;" xml:space="preserve">
<style type="text/css">
	.st0{fill:#010002;stroke:#FFFFFF;stroke-width:1.7748;stroke-linecap:round;stroke-linejoin:round;stroke-miterlimit:10;}
</style>
<g>
	<path class="st0" d="M462.5,295.4h-214c-61.6,0-111.7,50.1-111.7,111.7v214c0,61.6,50.1,111.7,111.7,111.7h214
		c61.6,0,111.7-50.1,111.7-111.7V407C574.2,345.5,524.1,295.4,462.5,295.4z M248.5,320.3L248.5,320.3l214,0
		c47.8,0,86.7,38.9,86.7,86.7v27.4H411.7c-15.9-11.3-35.3-17.9-56.2-17.9c-20.9,0-40.3,6.6-56.2,17.9H161.9V407
		C161.9,359.2,200.7,320.3,248.5,320.3z M355.5,441.5c40,0,72.5,32.5,72.5,72.5s-32.5,72.5-72.5,72.5S283,554,283,514
		C283,474.1,315.6,441.5,355.5,441.5z M462.5,707.7h-214c-47.8,0-86.7-38.9-86.7-86.7V459.5h112.9c-10.6,15.6-16.7,34.4-16.7,54.6
		c0,53.7,43.7,97.4,97.5,97.4c53.7,0,97.4-43.7,97.4-97.4c0-20.2-6.2-39-16.7-54.6h112.9V621C549.2,668.8,510.3,707.7,462.5,707.7z"
		/>
	<path class="st0" d="M440.5,427.2h56.2c6.9,0,12.5-5.6,12.5-12.5v-56.2c0-6.9-5.6-12.5-12.5-12.5h-56.2c-6.9,0-12.5,5.6-12.5,12.5
		v56.2C428,421.6,433.6,427.2,440.5,427.2z M453,371h31.2v31.2H453V371z"/>
</g>
<g>
	<path d="M738,403.6v102.1h98.2v26.1H738v103h-27.8v-103H612v-26.1h98.2V403.6H738z"/>
</g>
</svg>
