<?xml version="1.0" encoding="utf-8"?>
<!-- Generator: Adobe Illustrator 22.0.1, SVG Export Plug-In . SVG Version: 6.00 Build 0)  -->
<svg version="1.1" id="Capa_1" xmlns="http://www.w3.org/2000/svg" xmlns:xlink="http://www.w3.org/1999/xlink" x="0px" y="0px"
	 viewBox="0 0 1018 1018" style="enable-background:new 0 0 1018 1018;" xml:space="preserve">
<g>
	<g>
		<g>
			<g>
				<g>
					<polygon points="355,319.9 165.5,509.4 165.5,569.7 415.3,319.9 					"/>
				</g>
				<g>
					<path d="M208.2,319.9c-23.5,0-42.7,19.2-42.7,42.7v42.8l85.4-85.4H208.2z"/>
				</g>
				<g>
					<path d="M517.7,321.5L517.7,321.5L517.7,321.5z"/>
				</g>
				<g>
					<polygon points="299.7,703.9 360.1,703.9 549.5,514.5 549.5,454.1 					"/>
				</g>
				<g>
					<path d="M517.7,321.5L167.1,672.1c1.9,7.4,5.7,14,10.9,19.2l0.1,0.1c5.2,5.2,11.8,9,19.2,10.9l350.6-350.6
						C544,337,532.5,325.5,517.7,321.5z"/>
				</g>
				<g>
					<path d="M506.9,703.9c11.7,0,22.4-4.8,30.1-12.5c7.8-7.8,12.6-18.5,12.6-30.2v-42.8l-85.4,85.4H506.9z"/>
				</g>
			</g>
		</g>
	</g>
	<g>
		<path d="M738.1,400.1v104.4h100.4v26.7H738.1v105.3h-28.4V531.2H609.3v-26.7h100.4V400.1H738.1z"/>
	</g>
</g>
</svg>
