<?xml version="1.0" encoding="utf-8"?>
<!-- Generator: Adobe Illustrator 22.0.1, SVG Export Plug-In . SVG Version: 6.00 Build 0)  -->
<svg version="1.1" id="Layer_1" xmlns="http://www.w3.org/2000/svg" xmlns:xlink="http://www.w3.org/1999/xlink" x="0px" y="0px"
	 width="278.5px" height="68.7px" viewBox="0 0 278.5 68.7" style="enable-background:new 0 0 278.5 68.7;" xml:space="preserve">
<style type="text/css">
	.st0{fill:#C9C8C9;}
	.st1{fill:#7CB5E4;}
	.st2{fill:#FFFFFF;}
</style>
<path class="st0" d="M209.1,60.6c-0.3-0.3-0.5-0.7-0.5-1.2c0-0.5,0.2-0.9,0.5-1.2c0.3-0.3,0.7-0.5,1.2-0.5c0.4,0,0.8,0.2,1.1,0.5
	c0.3,0.3,0.5,0.7,0.5,1.2c0,0.5-0.2,0.9-0.5,1.2c-0.3,0.3-0.7,0.5-1.1,0.5C209.8,61,209.4,60.9,209.1,60.6z"/>
<path class="st0" d="M215.2,49.5c0.6-1.1,1.5-2,2.5-2.7c1.1-0.6,2.3-0.9,3.7-0.9c1.8,0,3.3,0.4,4.5,1.3c1.2,0.9,2,2.1,2.3,3.7h-2.6
	c-0.3-0.9-0.7-1.6-1.5-2.1s-1.6-0.8-2.7-0.8c-1.4,0-2.5,0.5-3.4,1.4c-0.9,1-1.3,2.3-1.3,4.1c0,1.8,0.4,3.2,1.3,4.1
	c0.9,1,2,1.5,3.4,1.5c1.1,0,2-0.3,2.7-0.8c0.7-0.5,1.2-1.2,1.5-2.2h2.6c-0.4,1.5-1.2,2.7-2.4,3.6c-1.2,0.9-2.7,1.4-4.4,1.4
	c-1.4,0-2.6-0.3-3.7-0.9c-1.1-0.6-1.9-1.5-2.5-2.7c-0.6-1.2-0.9-2.5-0.9-4C214.3,51.9,214.6,50.6,215.2,49.5z"/>
<path class="st0" d="M234.2,60.2c-1.1-0.6-2-1.5-2.6-2.7c-0.6-1.2-1-2.5-1-4c0-1.5,0.3-2.8,1-4c0.7-1.2,1.5-2,2.7-2.7
	c1.1-0.6,2.4-0.9,3.8-0.9c1.4,0,2.7,0.3,3.8,0.9c1.1,0.6,2,1.5,2.7,2.7c0.7,1.2,1,2.5,1,4c0,1.5-0.3,2.9-1,4
	c-0.7,1.2-1.6,2.1-2.7,2.7c-1.2,0.6-2.4,0.9-3.8,0.9C236.6,61.1,235.3,60.8,234.2,60.2z M240.4,58.4c0.8-0.4,1.4-1.1,1.9-1.9
	c0.5-0.8,0.7-1.9,0.7-3s-0.2-2.2-0.7-3c-0.5-0.8-1.1-1.5-1.8-1.9c-0.8-0.4-1.6-0.6-2.5-0.6c-0.9,0-1.7,0.2-2.5,0.6
	c-0.7,0.4-1.3,1-1.8,1.9c-0.5,0.8-0.7,1.8-0.7,3c0,1.2,0.2,2.2,0.7,3.1c0.4,0.8,1,1.5,1.8,1.9c0.7,0.4,1.5,0.6,2.4,0.6
	C238.8,59,239.7,58.8,240.4,58.4z"/>
<path class="st0" d="M269.6,46.6c0.9,0.5,1.6,1.2,2.1,2.1c0.5,1,0.8,2.1,0.8,3.5v8.7h-2.4v-8.4c0-1.5-0.4-2.6-1.1-3.4
	c-0.7-0.8-1.7-1.2-3-1.2c-1.3,0-2.3,0.4-3,1.2c-0.8,0.8-1.1,2-1.1,3.5v8.1h-2.4v-8.4c0-1.5-0.4-2.6-1.1-3.4
	c-0.7-0.8-1.7-1.2-2.9-1.2c-1.3,0-2.3,0.4-3,1.2c-0.8,0.8-1.1,2-1.1,3.5v8.1h-2.5V46.1h2.5v2.1c0.5-0.8,1.1-1.4,2-1.8
	s1.7-0.6,2.7-0.6c1.2,0,2.3,0.3,3.3,0.8c1,0.6,1.7,1.4,2.1,2.5c0.4-1,1.1-1.8,2-2.4c1-0.6,2-0.9,3.2-0.9
	C267.7,45.8,268.7,46.1,269.6,46.6z"/>
<g>
</g>
<g>
</g>
<g>
	<path class="st1" d="M75.1,44v6.4H82v1.9h-6.8v6.6h7.6v1.9H72.7V42.1h10.1V44H75.1z"/>
	<path class="st1" d="M94.2,60.9l-3.5-5.5l-3.4,5.5h-2.6l4.8-7.3l-4.7-7.4h2.8l3.4,5.4l3.4-5.4h2.6l-4.7,7.3l4.8,7.5H94.2z"/>
	<path class="st1" d="M104,46.7c1-0.6,2.1-0.8,3.4-0.8c1.3,0,2.5,0.3,3.6,0.9c1.1,0.6,1.9,1.5,2.5,2.7c0.6,1.1,0.9,2.5,0.9,4
		c0,1.5-0.3,2.8-0.9,4c-0.6,1.2-1.5,2.1-2.5,2.7c-1.1,0.6-2.3,1-3.6,1c-1.3,0-2.4-0.3-3.3-0.8c-1-0.6-1.7-1.3-2.2-2.1v9.7h-2.5V46.1
		h2.5v2.7C102.3,48,103,47.3,104,46.7z M111.2,50.5c-0.4-0.8-1.1-1.5-1.8-1.9c-0.8-0.4-1.6-0.6-2.5-0.6c-0.9,0-1.7,0.2-2.5,0.7
		c-0.8,0.4-1.4,1.1-1.8,1.9c-0.5,0.8-0.7,1.8-0.7,2.9c0,1.1,0.2,2.1,0.7,2.9c0.5,0.8,1.1,1.5,1.8,1.9c0.8,0.4,1.6,0.7,2.5,0.7
		c0.9,0,1.8-0.2,2.5-0.7c0.8-0.4,1.4-1.1,1.8-1.9s0.7-1.8,0.7-3C111.8,52.3,111.6,51.4,111.2,50.5z"/>
	<path class="st1" d="M120,40.9v19.9h-2.5V40.9H120z"/>
	<path class="st1" d="M126.9,60.2c-1.1-0.6-2-1.5-2.6-2.7c-0.6-1.2-1-2.5-1-4c0-1.5,0.3-2.8,1-4c0.7-1.2,1.5-2,2.7-2.7
		c1.1-0.6,2.4-0.9,3.8-0.9c1.4,0,2.7,0.3,3.8,0.9c1.1,0.6,2,1.5,2.7,2.7c0.7,1.2,1,2.5,1,4c0,1.5-0.3,2.9-1,4
		c-0.7,1.2-1.6,2.1-2.7,2.7c-1.2,0.6-2.4,0.9-3.8,0.9C129.3,61.1,128,60.8,126.9,60.2z M133.1,58.4c0.8-0.4,1.4-1.1,1.9-1.9
		c0.5-0.8,0.7-1.9,0.7-3s-0.2-2.2-0.7-3s-1.1-1.5-1.8-1.9c-0.8-0.4-1.6-0.6-2.5-0.6c-0.9,0-1.7,0.2-2.5,0.6c-0.7,0.4-1.3,1-1.8,1.9
		s-0.7,1.8-0.7,3c0,1.2,0.2,2.2,0.7,3.1c0.4,0.8,1,1.5,1.8,1.9c0.7,0.4,1.5,0.6,2.4,0.6C131.5,59,132.4,58.8,133.1,58.4z"/>
	<path class="st1" d="M143.6,60.5c-0.9-0.4-1.6-0.9-2.1-1.6c-0.5-0.7-0.8-1.5-0.9-2.4h2.5c0.1,0.8,0.4,1.4,1,1.9
		c0.6,0.5,1.4,0.7,2.4,0.7c1,0,1.7-0.2,2.2-0.6s0.8-1,0.8-1.7c0-0.6-0.3-1.1-0.9-1.4c-0.6-0.3-1.5-0.6-2.7-0.9
		c-1.1-0.3-2-0.6-2.7-0.9c-0.7-0.3-1.3-0.7-1.7-1.3c-0.5-0.6-0.7-1.3-0.7-2.2c0-0.8,0.2-1.5,0.6-2.1c0.4-0.6,1.1-1.2,1.9-1.5
		c0.8-0.4,1.8-0.6,2.8-0.6c1.6,0,3,0.4,4,1.2c1,0.8,1.5,2,1.6,3.4h-2.5c-0.1-0.8-0.4-1.5-0.9-1.9c-0.6-0.5-1.3-0.7-2.3-0.7
		c-0.9,0-1.6,0.2-2.1,0.6c-0.5,0.4-0.8,0.9-0.8,1.6c0,0.5,0.2,0.9,0.5,1.2c0.3,0.3,0.7,0.6,1.2,0.7c0.5,0.2,1.1,0.4,2,0.6
		c1.1,0.3,1.9,0.6,2.6,0.8c0.6,0.3,1.2,0.7,1.7,1.2c0.5,0.5,0.7,1.3,0.7,2.2c0,0.8-0.2,1.6-0.7,2.2c-0.4,0.6-1.1,1.2-1.9,1.5
		c-0.8,0.4-1.8,0.6-2.8,0.6C145.5,61.1,144.5,60.9,143.6,60.5z"/>
	<path class="st1" d="M155.6,43.2c-0.3-0.3-0.5-0.7-0.5-1.2c0-0.5,0.2-0.9,0.5-1.2c0.3-0.3,0.7-0.5,1.2-0.5c0.4,0,0.8,0.2,1.1,0.5
		c0.3,0.3,0.5,0.7,0.5,1.2c0,0.5-0.2,0.9-0.5,1.2c-0.3,0.3-0.7,0.5-1.1,0.5C156.3,43.7,155.9,43.6,155.6,43.2z M158,46.1v14.8h-2.5
		V46.1H158z"/>
	<path class="st1" d="M167.6,58.6l4.6-12.4h2.6l-5.8,14.8h-2.9l-5.8-14.8h2.6L167.6,58.6z"/>
	<path class="st1" d="M177.3,49.5c0.6-1.1,1.5-2,2.5-2.7c1.1-0.6,2.3-0.9,3.6-0.9c1.3,0,2.4,0.3,3.4,0.8c1,0.6,1.7,1.3,2.1,2.1v-2.7
		h2.5v14.8h-2.5v-2.7c-0.5,0.9-1.2,1.6-2.2,2.1c-1,0.6-2.1,0.8-3.4,0.8c-1.3,0-2.5-0.3-3.6-1c-1.1-0.6-1.9-1.6-2.5-2.7
		c-0.6-1.2-0.9-2.5-0.9-4C176.3,51.9,176.6,50.6,177.3,49.5z M188.2,50.6c-0.5-0.8-1.1-1.5-1.8-1.9c-0.8-0.4-1.6-0.7-2.5-0.7
		c-0.9,0-1.7,0.2-2.5,0.6s-1.4,1.1-1.8,1.9c-0.5,0.8-0.7,1.8-0.7,2.9c0,1.1,0.2,2.1,0.7,3c0.4,0.8,1,1.5,1.8,1.9
		c0.8,0.4,1.6,0.7,2.5,0.7c0.9,0,1.8-0.2,2.5-0.7c0.8-0.4,1.4-1.1,1.8-1.9c0.4-0.8,0.7-1.8,0.7-2.9
		C188.8,52.4,188.6,51.4,188.2,50.6z"/>
	<path class="st1" d="M197.6,60.5c-0.9-0.4-1.6-0.9-2.1-1.6c-0.5-0.7-0.8-1.5-0.9-2.4h2.5c0.1,0.8,0.4,1.4,1,1.9
		c0.6,0.5,1.4,0.7,2.4,0.7c1,0,1.7-0.2,2.2-0.6c0.5-0.4,0.8-1,0.8-1.7c0-0.6-0.3-1.1-0.9-1.4c-0.6-0.3-1.5-0.6-2.7-0.9
		c-1.1-0.3-2-0.6-2.7-0.9c-0.7-0.3-1.3-0.7-1.8-1.3c-0.5-0.6-0.7-1.3-0.7-2.2c0-0.8,0.2-1.5,0.6-2.1c0.4-0.6,1.1-1.2,1.9-1.5
		c0.8-0.4,1.8-0.6,2.8-0.6c1.6,0,3,0.4,4,1.2c1,0.8,1.5,2,1.6,3.4h-2.5c-0.1-0.8-0.4-1.5-0.9-1.9c-0.6-0.5-1.3-0.7-2.3-0.7
		c-0.9,0-1.6,0.2-2.1,0.6c-0.5,0.4-0.8,0.9-0.8,1.6c0,0.5,0.2,0.9,0.5,1.2c0.3,0.3,0.7,0.6,1.2,0.7c0.5,0.2,1.1,0.4,2,0.6
		c1.1,0.3,1.9,0.6,2.6,0.8c0.6,0.3,1.2,0.7,1.7,1.2c0.5,0.5,0.7,1.3,0.7,2.2c0,0.8-0.2,1.6-0.7,2.2s-1.1,1.2-1.9,1.5
		c-0.8,0.4-1.7,0.6-2.8,0.6C199.5,61.1,198.5,60.9,197.6,60.5z"/>
	<g>
		<g>
			<g>
				<path class="st1" d="M184.3,37.6c-1.6,0.3-2.6,1.9-2.3,3.5c0.3,1.6,1.9,2.6,3.5,2.3s2.6-1.9,2.3-3.5S185.8,37.2,184.3,37.6z
					 M185.1,41.4c-0.5,0.1-1.1-0.2-1.2-0.8c-0.1-0.5,0.2-1.1,0.8-1.2c0.5-0.1,1.1,0.2,1.2,0.8S185.6,41.3,185.1,41.4z"/>
			</g>
		</g>
		<g>
			<g>
				<circle class="st1" cx="147.4" cy="10" r="2"/>
			</g>
		</g>
		<g>
			<g>
				<path class="st1" d="M164.1,23.9c-0.4-0.3-1-0.2-1.3,0.2L155,34.8c-0.3,0.4-0.2,1.1,0.2,1.4c0.4,0.3,1.1,0.2,1.4-0.2l7.8-10.7
					C164.7,24.8,164.6,24.2,164.1,23.9z"/>
			</g>
		</g>
		<g>
			<g>
				<path class="st1" d="M181.7,26.5c-0.5,0.1-0.8,0.6-0.7,1.1l0.2,0.9c0.1,0.5,0.6,0.8,1.1,0.7c0.5-0.1,0.8-0.6,0.7-1.1l-0.2-0.9
					C182.7,26.8,182.2,26.4,181.7,26.5z"/>
			</g>
		</g>
		<g>
			<g>
				<path class="st1" d="M185.5,25.6l-0.8-0.5c-0.4-0.3-1-0.1-1.3,0.3c-0.3,0.4-0.1,1,0.3,1.3l0.8,0.5c0.4,0.3,1,0.1,1.3-0.3
					C186,26.4,185.9,25.8,185.5,25.6z"/>
			</g>
		</g>
		<g>
			<g>
				<path class="st1" d="M185.4,22l-0.9,0.2c-0.5,0.1-0.8,0.6-0.7,1.1c0.1,0.5,0.6,0.8,1.1,0.7l0.9-0.2c0.5-0.1,0.8-0.6,0.7-1.1
					C186.4,22.2,185.9,21.9,185.4,22z"/>
			</g>
		</g>
		<g>
			<g>
				<path class="st1" d="M184.1,19.2c-0.4-0.3-1-0.1-1.3,0.3l-0.5,0.8c-0.3,0.4-0.2,1,0.3,1.3c0.2,0.1,0.5,0.2,0.7,0.1l0,0
					c0.2-0.1,0.4-0.2,0.6-0.4l0.5-0.8C184.6,20,184.5,19.5,184.1,19.2z"/>
			</g>
		</g>
		<g>
			<g>
				<path class="st1" d="M179.9,18.4c-0.5,0.1-0.8,0.6-0.7,1.1l0.2,0.9c0.1,0.5,0.6,0.8,1.1,0.7c0.5-0.1,0.8-0.6,0.7-1.1l-0.2-0.9
					C180.9,18.6,180.4,18.3,179.9,18.4z"/>
			</g>
		</g>
		<g>
			<g>
				<path class="st1" d="M178.5,21.1l-0.8-0.5c-0.4-0.3-1-0.1-1.3,0.3c-0.3,0.4-0.1,1,0.3,1.3l0.8,0.5c0.4,0.3,1,0.1,1.3-0.3
					C179,21.9,178.9,21.3,178.5,21.1z"/>
			</g>
		</g>
		<g>
			<path class="st1" d="M175.9,9.1c-0.5-0.7-1.5-0.9-2.3-0.3c-0.7,0.5-0.9,1.5-0.4,2.2c0.4,0.6,1.1,0.8,1.7,0.7
				c0.2,0,0.3-0.1,0.5-0.2c0.8-0.5,1-1.5,0.5-2.2C176,9.2,175.9,9.2,175.9,9.1z"/>
		</g>
		<g>
			<g>
				<circle class="st1" cx="176" cy="33.2" r="1.1"/>
			</g>
		</g>
	</g>
</g>
<g>
	<g>
		<path class="st2" d="M20.5,17.7v5.1h-5.5v15.4H8.6V22.8H3.2v-5.1H20.5z"/>
		<path class="st2" d="M22.3,25.5c0.6-1.3,1.4-2.2,2.4-2.9s2.2-1,3.5-1c1.1,0,2,0.2,2.8,0.7c0.8,0.4,1.4,1,1.8,1.8v-2.2h6.4v16.4
			h-6.4V36c-0.4,0.8-1,1.3-1.8,1.8c-0.8,0.4-1.7,0.7-2.8,0.7c-1.3,0-2.4-0.3-3.5-1c-1-0.7-1.8-1.6-2.4-2.9c-0.6-1.3-0.9-2.8-0.9-4.5
			S21.7,26.8,22.3,25.5z M32,28c-0.4-0.5-1-0.7-1.7-0.7S29,27.5,28.6,28c-0.4,0.5-0.7,1.2-0.7,2s0.2,1.5,0.7,2
			c0.4,0.5,1,0.7,1.7,0.7s1.3-0.2,1.7-0.7c0.4-0.5,0.7-1.2,0.7-2S32.5,28.5,32,28z"/>
		<path class="st2" d="M50.9,22.6c0.9-0.6,1.9-0.9,3-0.9v6.9H52c-1.2,0-2.1,0.2-2.7,0.6c-0.6,0.4-0.9,1.2-0.9,2.3v6.7H42V21.8h6.4v3
			C49.1,23.9,49.9,23.2,50.9,22.6z"/>
		<path class="st2" d="M62,39.4c0,4.5-2.2,6.7-6.7,6.7h-2.1v-5.5h1.2c0.4,0,0.7-0.1,0.9-0.3c0.2-0.2,0.3-0.5,0.3-0.8V21.8H62V39.4z
			 M56.1,19.6c-0.7-0.6-1-1.4-1-2.3c0-0.9,0.3-1.7,1-2.3c0.7-0.6,1.6-0.9,2.7-0.9c1.1,0,2,0.3,2.7,0.9c0.7,0.6,1,1.4,1,2.3
			c0,0.9-0.3,1.7-1,2.3c-0.7,0.6-1.6,0.9-2.7,0.9C57.6,20.5,56.7,20.2,56.1,19.6z"/>
		<path class="st2" d="M80.6,31.2H70.3c0.1,1.4,0.7,2.1,1.8,2.1c0.7,0,1.2-0.3,1.5-1h6.8c-0.2,1.2-0.7,2.2-1.5,3.1
			c-0.7,0.9-1.7,1.6-2.8,2.2c-1.1,0.5-2.4,0.8-3.7,0.8c-1.6,0-3.1-0.3-4.3-1c-1.3-0.7-2.3-1.7-3-2.9S64,31.7,64,30s0.4-3.2,1.1-4.5
			s1.7-2.2,3-2.9c1.3-0.7,2.7-1,4.3-1c1.6,0,3.1,0.3,4.3,1c1.3,0.7,2.3,1.6,3,2.9c0.7,1.2,1.1,2.7,1.1,4.4
			C80.7,30.3,80.7,30.8,80.6,31.2z M74.2,28.5c0-0.6-0.2-1.1-0.5-1.4c-0.3-0.3-0.8-0.5-1.3-0.5c-1.2,0-1.9,0.6-2,1.8H74.2z"/>
		<path class="st2" d="M92.9,32.7v5.5h-2.4c-4.5,0-6.7-2.2-6.7-6.7v-4.3h-2v-5.4h2v-3.9h6.4v3.9h2.7v5.4h-2.7v4.4
			c0,0.4,0.1,0.7,0.3,0.8c0.2,0.2,0.5,0.3,0.9,0.3H92.9z"/>
		<path class="st2" d="M95.4,25.5c0.6-1.3,1.4-2.2,2.4-2.9c1-0.7,2.2-1,3.5-1c1.1,0,2,0.2,2.8,0.7s1.4,1,1.8,1.8v-2.2h6.4v16.4h-6.4
			V36c-0.4,0.8-1,1.3-1.8,1.8s-1.7,0.7-2.8,0.7c-1.3,0-2.4-0.3-3.5-1c-1-0.7-1.8-1.6-2.4-2.9c-0.6-1.3-0.9-2.8-0.9-4.5
			S94.8,26.8,95.4,25.5z M105.2,28c-0.4-0.5-1-0.7-1.7-0.7s-1.3,0.2-1.7,0.7s-0.7,1.2-0.7,2s0.2,1.5,0.7,2s1,0.7,1.7,0.7
			s1.3-0.2,1.7-0.7s0.7-1.2,0.7-2S105.6,28.5,105.2,28z"/>
		<path class="st2" d="M118.3,37.7c-1.2-0.5-2.1-1.2-2.8-2.1c-0.7-0.9-1.1-1.9-1.2-3h6.2c0.1,0.5,0.3,0.8,0.6,1.1s0.8,0.3,1.3,0.3
			c0.3,0,0.6-0.1,0.8-0.2c0.2-0.1,0.3-0.3,0.3-0.5c0-0.4-0.2-0.6-0.6-0.8c-0.4-0.2-1.1-0.3-2.1-0.5c-1.2-0.2-2.2-0.5-2.9-0.8
			c-0.8-0.3-1.4-0.7-2-1.4c-0.6-0.7-0.9-1.6-0.9-2.7c0-1,0.3-1.9,0.8-2.7c0.5-0.8,1.3-1.5,2.4-1.9s2.3-0.7,3.8-0.7
			c2.2,0,3.9,0.5,5.2,1.6c1.2,1.1,2,2.5,2.3,4.2h-5.7c-0.1-0.4-0.3-0.8-0.6-1c-0.3-0.2-0.7-0.4-1.2-0.4c-0.3,0-0.6,0.1-0.8,0.2
			c-0.2,0.1-0.3,0.3-0.3,0.6c0,0.3,0.2,0.6,0.6,0.7c0.4,0.2,1.1,0.3,1.9,0.5c1.2,0.2,2.2,0.5,3,0.8c0.8,0.3,1.5,0.8,2.1,1.5
			c0.6,0.7,0.9,1.7,0.9,2.9c0,1-0.3,1.8-0.8,2.6c-0.6,0.8-1.4,1.4-2.4,1.8c-1.1,0.4-2.3,0.7-3.7,0.7
			C120.9,38.4,119.5,38.2,118.3,37.7z"/>
	</g>
	<g>
		<g>
			<path class="st2" d="M169.4,14.3l-4.8,1c-0.5,0.1-0.9,0.6-0.8,1.2l1,4.8c0.1,0.5,0.6,0.9,1.2,0.8l4.8-1c0.5-0.1,0.9-0.6,0.8-1.2
				l-1-4.8C170.5,14.6,169.9,14.2,169.4,14.3z M169.5,19.4l-2.9,0.6l-0.6-2.9l2.9-0.6L169.5,19.4z"/>
		</g>
	</g>
	<g>
		<g>
			<path class="st2" d="M180.9,23.5c-0.3-0.4-0.9-0.5-1.3-0.2l-17,13.1c-0.4,0.3-0.5,0.9-0.2,1.3c0,0,0,0,0,0
				c0.3,0.4,0.9,0.5,1.3,0.2c0,0,0,0,0,0l17-13.1C181.2,24.5,181.2,23.9,180.9,23.5z"/>
		</g>
	</g>
	<g>
		<g>
			<path class="st2" d="M150.6,14.2c-0.2-0.5-0.8-0.7-1.3-0.5c-0.5,0.2-0.7,0.8-0.5,1.3c0,0,0,0,0,0c2.4,5.2,3.1,11,2,16.5l-0.7,3.7
				c-0.1,0.5,0.3,1,0.8,1.1c0.1,0,0.3,0,0.4,0c0.4-0.1,0.7-0.4,0.8-0.8l0.7-3.6C153.9,25.9,153.1,19.7,150.6,14.2z"/>
		</g>
	</g>
	<g>
		<g>
			<path class="st2" d="M144.6,17.5c-0.2-0.3-0.5-0.5-0.9-0.5l-2.9,0.2l-1.8-2.3c-0.4-0.4-1-0.4-1.4-0.1c-0.1,0.1-0.2,0.3-0.3,0.4
				l-0.7,2.8l-2.7,1c-0.5,0.2-0.8,0.8-0.6,1.3c0.1,0.2,0.2,0.4,0.4,0.5l2.5,1.6l0.1,2.9c0,0.5,0.5,1,1,0.9c0.2,0,0.4-0.1,0.6-0.2
				l2.2-1.9l2.8,0.8c0.5,0.1,1.1-0.2,1.2-0.7c0.1-0.2,0-0.4,0-0.6l-1.1-2.7l1.6-2.4C144.7,18.2,144.8,17.8,144.6,17.5z M141,20.3
				c-0.2,0.3-0.2,0.6-0.1,0.9l0.5,1.3l-1.4-0.4c-0.3-0.1-0.6,0-0.9,0.2l-1.1,0.9l-0.1-1.4c0-0.3-0.2-0.6-0.5-0.8l-1.2-0.8l1.4-0.5
				c0.3-0.1,0.5-0.4,0.6-0.7l0.4-1.4l0.9,1.1c0.2,0.3,0.5,0.4,0.8,0.4l1.4-0.1L141,20.3z"/>
		</g>
	</g>
	<g>
		<path class="st2" d="M164.2,42.4c0.2,0.3,0.4,0.4,0.7,0.5c0.3,0.1,0.6,0,0.9-0.2c3-1.9,7.3-2.2,10.3-1.8c0.6,0.1,1.2-0.3,1.3-1
			c0.1-0.6-0.3-1.2-1-1.3c-3.4-0.5-8.3-0.2-11.8,2.1C164,41.2,163.8,41.9,164.2,42.4z"/>
	</g>
	<g>
		<path class="st2" d="M180,39.8C180,39.8,180,39.8,180,39.8c-0.7-0.3-1.3-0.1-1.6,0.5c-0.3,0.6-0.1,1.2,0.5,1.5l0.1,0
			c0.1,0,0.2,0.1,0.3,0.1c0.5,0.1,1-0.1,1.3-0.6C180.8,40.8,180.6,40.1,180,39.8z"/>
	</g>
	<g>
		<path class="st2" d="M164.2,3.6l-1.4,0.3l-0.3-1.4c-0.2-0.8-0.9-1.3-1.7-1.1c-0.8,0.2-1.3,0.9-1.1,1.7l0.3,1.4l-1.4,0.3
			c-0.8,0.2-1.3,0.9-1.1,1.7c0.2,0.8,0.9,1.3,1.7,1.1l1.4-0.3l0.3,1.4c0.2,0.8,0.9,1.3,1.7,1.1c0.8-0.2,1.3-0.9,1.1-1.7l-0.3-1.4
			l1.4-0.3c0.8-0.2,1.3-0.9,1.1-1.7S164.9,3.4,164.2,3.6z"/>
	</g>
	<g>
		<g>
			<path class="st2" d="M199.9,25.4l-2.6-0.2l-1.9-1.9l-1,2.5l-2.2,1.3l2,1.7l0.5,2.7l2.2-1.4l2.6,0.4l-0.6-2.6L199.9,25.4z
				 M197.6,28.8l-1.1-0.2l-0.9,0.6l-0.2-1.1l-0.9-0.8l1-0.5l0.4-1l0.8,0.8l1.1,0.1l-0.5,1L197.6,28.8z"/>
		</g>
	</g>
</g>
</svg>
