<?xml version="1.0" encoding="utf-8"?>
<!-- Generator: Adobe Illustrator 22.0.1, SVG Export Plug-In . SVG Version: 6.00 Build 0)  -->
<svg version="1.1" id="Layer_1" xmlns="http://www.w3.org/2000/svg" xmlns:xlink="http://www.w3.org/1999/xlink" x="0px" y="0px"
	 width="323px" height="337px" viewBox="0 0 323 337" style="enable-background:new 0 0 323 337;" xml:space="preserve">
<style type="text/css">
	.st0{fill:#333333;}
	.st1{fill:#424242;}
</style>
<path class="st0" d="M298.3,246.5C298.3,246.4,298.3,246.4,298.3,246.5c0.1-0.1,0.2-0.2,0.2-0.3c0,0,0,0,0,0c0-0.1,0.1-0.1,0.1-0.2
	c0,0,0-0.1,0-0.1c0.1-0.1,0.1-0.2,0.1-0.3c0,0,0,0,0,0c0-0.1,0.1-0.1,0.1-0.2c0,0,0-0.1,0-0.1c0-0.1,0.1-0.2,0.1-0.3c0,0,0,0,0,0
	c0-0.1,0.1-0.1,0.1-0.2c0,0,0-0.1,0-0.1c0-0.1,0.1-0.2,0.1-0.3c0,0,0-0.1,0-0.1c0,0,0-0.1,0-0.1c0,0,0-0.1,0-0.1c0-0.1,0-0.2,0-0.3
	c0-0.1,0-0.1,0-0.2l9-177c0-0.1,0-0.3,0-0.4c0-0.1,0-0.1,0-0.2c0,0,0,0,0,0c0-0.1,0-0.1,0-0.2c0-0.1,0-0.2,0-0.3c0-0.1,0-0.2,0-0.3
	c0-0.1,0-0.1,0-0.2c0,0,0-0.1,0-0.1c0-0.1,0-0.2-0.1-0.2c0-0.1-0.1-0.2-0.1-0.2c0-0.1-0.1-0.2-0.1-0.3c0-0.1-0.1-0.2-0.1-0.3
	c0,0,0,0,0,0c0-0.1-0.1-0.1-0.1-0.2c0-0.1-0.1-0.2-0.1-0.2c-0.1-0.1-0.1-0.2-0.2-0.3c0-0.1-0.1-0.1-0.1-0.2c0-0.1-0.1-0.1-0.1-0.2
	c-0.1-0.1-0.2-0.2-0.3-0.3c-0.1-0.1-0.1-0.1-0.2-0.2c0,0-0.1-0.1-0.1-0.1c-0.1-0.1-0.3-0.2-0.4-0.3c0,0-0.1-0.1-0.1-0.1c0,0,0,0,0,0
	c0,0,0,0,0,0c-0.1,0-0.1-0.1-0.2-0.1c-0.1-0.1-0.3-0.2-0.4-0.3c0,0-0.1,0-0.1,0c-0.1,0-0.1-0.1-0.2-0.1c-0.2-0.1-0.3-0.1-0.5-0.2
	c0,0-0.1,0-0.1-0.1l-144-42c0,0,0,0,0,0c-0.1,0-0.2,0-0.2-0.1c-0.1,0-0.3-0.1-0.4-0.1c0,0-0.1,0-0.1,0c-0.1,0-0.1,0-0.2,0
	c-0.1,0-0.2,0-0.3,0c-0.1,0-0.1,0-0.2,0c-0.1,0-0.1,0-0.2,0c-0.1,0-0.1,0-0.2,0c-0.1,0-0.2,0-0.3,0c-0.1,0-0.1,0-0.2,0
	c0,0-0.1,0-0.1,0c0,0-0.1,0-0.1,0c-0.1,0-0.2,0-0.3,0.1c-0.1,0-0.2,0.1-0.4,0.1c0,0,0,0-0.1,0l-134,44c0,0-0.1,0-0.1,0
	c-0.2,0.1-0.4,0.1-0.6,0.2c0,0-0.1,0-0.1,0.1c0,0,0,0,0,0c-0.2,0.1-0.4,0.2-0.6,0.4c0,0,0,0,0,0c0,0,0,0-0.1,0
	c-0.1,0-0.1,0.1-0.2,0.1c-0.1,0.1-0.3,0.2-0.4,0.3c0,0-0.1,0.1-0.1,0.1c0,0-0.1,0.1-0.1,0.1c-0.1,0.1-0.2,0.2-0.3,0.3
	c0,0.1-0.1,0.1-0.1,0.2c0,0,0,0.1-0.1,0.1c-0.1,0.1-0.2,0.3-0.3,0.4c0,0.1-0.1,0.1-0.1,0.2c0,0,0,0,0,0.1c0,0,0,0.1-0.1,0.1
	c-0.1,0.2-0.1,0.3-0.2,0.5c0,0,0,0.1,0,0.1c0,0.1,0,0.2-0.1,0.2c0,0.1-0.1,0.3-0.1,0.4c0,0.1,0,0.1,0,0.2c0,0.1,0,0.1,0,0.2
	c0,0.1,0,0.3,0,0.4c0,0.1,0,0.1,0,0.2c0,0,0,0.1,0,0.1c0,0,0,0.1,0,0.1l3,172c0,0.2,0,0.5,0.1,0.7c0,0.1,0,0.2,0.1,0.2
	c0,0.2,0.1,0.3,0.1,0.5c0,0.1,0.1,0.2,0.1,0.3c0,0.1,0.1,0.3,0.1,0.4c0,0.1,0.1,0.2,0.1,0.3c0.1,0.1,0.1,0.2,0.2,0.4
	c0.1,0.1,0.1,0.2,0.2,0.3c0.1,0.1,0.1,0.2,0.2,0.3c0.1,0.1,0.1,0.2,0.2,0.2c0.1,0.1,0.2,0.2,0.3,0.3c0.1,0.1,0.2,0.1,0.3,0.2
	c0.1,0.1,0.2,0.2,0.3,0.2c0.1,0.1,0.2,0.1,0.3,0.2c0.1,0.1,0.2,0.1,0.3,0.2c0,0,0,0,0.1,0c0,0,0,0,0.1,0l139,75
	c0.1,0.1,0.2,0.1,0.3,0.1c0.1,0,0.2,0.1,0.3,0.1c0,0,0,0,0.1,0c0.1,0,0.2,0.1,0.3,0.1c0.1,0,0.2,0.1,0.3,0.1c0,0,0,0,0,0
	c0.1,0,0.3,0,0.4,0.1c0,0,0,0,0,0c0.1,0,0.2,0,0.2,0c0,0,0,0,0,0c0.2,0,0.4,0,0.7,0c0.2,0,0.5,0,0.7,0c0.1,0,0.1,0,0.2,0
	c0.2,0,0.3-0.1,0.5-0.1c0.1,0,0.2-0.1,0.3-0.1c0.1,0,0.3-0.1,0.4-0.1c0.1,0,0.2-0.1,0.3-0.1c0.1-0.1,0.2-0.1,0.3-0.2l127-72
	c0,0,0,0,0,0c0,0,0,0,0,0l0,0c0.1-0.1,0.2-0.1,0.3-0.2c0.1-0.1,0.2-0.1,0.3-0.2c0,0,0,0,0,0c0.1,0,0.1-0.1,0.2-0.2c0,0,0,0,0.1-0.1
	c0.1-0.1,0.2-0.1,0.2-0.2c0,0,0,0,0,0c0.1-0.1,0.1-0.1,0.2-0.2c0,0,0,0,0-0.1C298.2,246.6,298.2,246.5,298.3,246.5z M273.8,225.7
	l-101.3-55.5v-43.6l124.6-52.2l-5.9,116L289,234L273.8,225.7z M166.9,117.1l-3.7-1.4l1.2-84.3l122.2,35.6L166.9,117.1z M151.5,164.7
	l-118.2,66L30.6,76.1l121.5,47.1L151.5,164.7z M153.4,31.6L152.8,76l-0.5,35.4l-111-43l10.8-3.6L153.4,31.6z M41.3,239.9L157,174.3
	l4.5,2.4v129L41.3,239.9z M172.5,182.8l110.2,60.3l-22,12.5l-88.2,50V182.8z"/>
<polygon class="st1" points="25,68 167,123 303,66 159,24 "/>
<path class="st0" d="M167,128.5c-0.7,0-1.3-0.1-2-0.4l-142-55c-2.2-0.8-3.6-2.9-3.5-5.3c0.1-2.3,1.6-4.4,3.8-5.1l134-44
	c1.1-0.3,2.2-0.4,3.3-0.1l144,42c2.2,0.7,3.8,2.6,4,5c0.1,2.3-1.2,4.5-3.4,5.4l-136,57C168.4,128.4,167.7,128.5,167,128.5z
	 M41.3,68.4l125.6,48.6l119.6-50.1L159.1,29.8L41.3,68.4z"/>
</svg>
