<?xml version="1.0" encoding="utf-8"?>
<!-- Generator: Adobe Illustrator 22.0.1, SVG Export Plug-In . SVG Version: 6.00 Build 0)  -->
<svg version="1.1" id="Layer_1" xmlns="http://www.w3.org/2000/svg" xmlns:xlink="http://www.w3.org/1999/xlink" x="0px" y="0px"
	 width="323px" height="337px" viewBox="0 0 323 337" style="enable-background:new 0 0 323 337;" xml:space="preserve">
<style type="text/css">
	.st0{fill:#333333;}
	.st1{fill:#424242;}
</style>
<path class="st0" d="M298.3,246.5C298.3,246.4,298.3,246.4,298.3,246.5c0.1-0.1,0.2-0.2,0.2-0.3l0,0c0-0.1,0.1-0.1,0.1-0.2v-0.1
	c0.1-0.1,0.1-0.2,0.1-0.3l0,0c0-0.1,0.1-0.1,0.1-0.2v-0.1c0-0.1,0.1-0.2,0.1-0.3l0,0c0-0.1,0.1-0.1,0.1-0.2v-0.1
	c0-0.1,0.1-0.2,0.1-0.3v-0.1v-0.1v-0.1c0-0.1,0-0.2,0-0.3s0-0.1,0-0.2l9-177c0-0.1,0-0.3,0-0.4s0-0.1,0-0.2l0,0c0-0.1,0-0.1,0-0.2
	s0-0.2,0-0.3c0-0.1,0-0.2,0-0.3c0-0.1,0-0.1,0-0.2v-0.1c0-0.1,0-0.2-0.1-0.2c0-0.1-0.1-0.2-0.1-0.2c0-0.1-0.1-0.2-0.1-0.3
	c0-0.1-0.1-0.2-0.1-0.3l0,0c0-0.1-0.1-0.1-0.1-0.2c0-0.1-0.1-0.2-0.1-0.2c-0.1-0.1-0.1-0.2-0.2-0.3c0-0.1-0.1-0.1-0.1-0.2
	c0-0.1-0.1-0.1-0.1-0.2c-0.1-0.1-0.2-0.2-0.3-0.3c-0.1-0.1-0.1-0.1-0.2-0.2l-0.1-0.1c-0.1-0.1-0.3-0.2-0.4-0.3l-0.1-0.1l0,0l0,0
	c-0.1,0-0.1-0.1-0.2-0.1c-0.1-0.1-0.3-0.2-0.4-0.3h-0.1c-0.1,0-0.1-0.1-0.2-0.1c-0.2-0.1-0.3-0.1-0.5-0.2c0,0-0.1,0-0.1-0.1l-144-42
	l0,0c-0.1,0-0.2,0-0.2-0.1c-0.1,0-0.3-0.1-0.4-0.1h-0.1c-0.1,0-0.1,0-0.2,0c-0.1,0-0.2,0-0.3,0s-0.1,0-0.2,0c-0.1,0-0.1,0-0.2,0
	c-0.1,0-0.1,0-0.2,0c-0.1,0-0.2,0-0.3,0s-0.1,0-0.2,0h-0.1H158c-0.1,0-0.2,0-0.3,0.1c-0.1,0-0.2,0.1-0.4,0.1c0,0,0,0-0.1,0l-134,44
	c-0.3,0.1-0.5,0.2-0.8,0.3c-0.1,0-0.2,0.1-0.3,0.2c-0.2,0.1-0.3,0.2-0.5,0.3c-0.1,0.1-0.2,0.2-0.3,0.2c-0.1,0.1-0.3,0.2-0.4,0.3
	s-0.2,0.2-0.2,0.3c-0.1,0.1-0.2,0.2-0.3,0.4c-0.1,0.1-0.1,0.2-0.2,0.3c-0.1,0.1-0.2,0.3-0.2,0.4c-0.1,0.1-0.1,0.2-0.2,0.4
	c-0.1,0.1-0.1,0.3-0.2,0.4c0,0.1-0.1,0.3-0.1,0.4s-0.1,0.3-0.1,0.5c0,0.1,0,0.3,0,0.4s0,0.2,0,0.3v0.1v0.1l3,172
	c0,1.9,1.1,3.7,2.8,4.7c0.8,0.5,1.8,0.7,2.7,0.7c0.2,0,0.4,0,0.5,0l135.8,74.4c0.1,0.1,0.2,0.1,0.3,0.1s0.2,0.1,0.3,0.1
	c0.1,0.1,0.3,0.1,0.4,0.1c0.1,0,0.2,0.1,0.3,0.1c0.2,0,0.3,0.1,0.5,0.1c0.1,0,0.2,0,0.2,0c0.2,0,0.5,0,0.7,0c0.9,0,1.9-0.2,2.7-0.7
	l127-72l0,0l0,0l0,0c0.1-0.1,0.2-0.1,0.3-0.2c0.1-0.1,0.2-0.1,0.3-0.2l0,0c0.1,0,0.1-0.1,0.2-0.2c0,0,0,0,0.1-0.1s0.2-0.1,0.2-0.2
	l0,0c0.1-0.1,0.1-0.1,0.2-0.2c0,0,0,0,0-0.1C298.2,246.6,298.2,246.5,298.3,246.5z M172.5,182.8l110.2,60.3l-22,12.5l-88.2,50
	L172.5,182.8L172.5,182.8z M52.1,64.9l101.2-33.2L152.8,76l-0.5,35.4l-111-43L52.1,64.9z M273.8,225.7l-101.3-55.5v-43.6l124.6-52.2
	l-5.9,116L289,234L273.8,225.7z M166.9,117.1l-3.7-1.4l1.2-84.3L286.6,67L166.9,117.1z M152.1,123.1l-0.6,41.6l-118.2,66L30.6,76.1
	L152.1,123.1z M157,174.3l4.5,2.4v129L41.3,239.9L157,174.3z"/>
<polygon class="st1" points="167,315 28,240 25,68 167,123 "/>
<path class="st0" d="M167,320.5c-0.9,0-1.8-0.2-2.6-0.7l-139-75c-1.7-0.9-2.9-2.8-2.9-4.7l-3-172c0-1.8,0.8-3.6,2.4-4.6
	c1.5-1,3.4-1.3,5.1-0.6l142,55c2.1,0.8,3.5,2.9,3.5,5.1v192c0,1.9-1,3.7-2.7,4.7C169,320.2,168,320.5,167,320.5z M33.4,236.7
	l128.1,69.1v-179L30.6,76.1L33.4,236.7z"/>
</svg>
