<?xml version="1.0" encoding="utf-8"?>
<!-- Generator: Adobe Illustrator 22.0.1, SVG Export Plug-In . SVG Version: 6.00 Build 0)  -->
<svg version="1.1" id="Layer_1" xmlns="http://www.w3.org/2000/svg" xmlns:xlink="http://www.w3.org/1999/xlink" x="0px" y="0px"
	 width="323px" height="337px" viewBox="0 0 323 337" style="enable-background:new 0 0 323 337;" xml:space="preserve">
<style type="text/css">
	.st0{fill:#4A63FF;}
	.st1{fill:#333333;}
</style>
<polygon class="st0" points="159,24 157,168 28,240 25,68 "/>
<path class="st1" d="M28,245.5c-0.9,0-1.9-0.2-2.7-0.7c-1.7-1-2.7-2.7-2.8-4.7l-3-172c0-2.4,1.5-4.6,3.8-5.3l134-44
	c1.7-0.6,3.5-0.3,5,0.8c1.4,1.1,2.3,2.7,2.2,4.5l-2,144c0,2-1.1,3.8-2.8,4.7l-129,72C29.8,245.3,28.9,245.5,28,245.5z M30.6,72
	l2.8,158.8l118.2-66l1.8-133.1L30.6,72z"/>
<path class="st1" d="M298.3,246.5C298.3,246.4,298.3,246.4,298.3,246.5c0.1-0.1,0.2-0.2,0.2-0.3c0,0,0,0,0,0c0-0.1,0.1-0.1,0.1-0.2
	c0,0,0-0.1,0-0.1c0.1-0.1,0.1-0.2,0.1-0.3c0,0,0,0,0,0c0-0.1,0.1-0.1,0.1-0.2c0,0,0-0.1,0-0.1c0-0.1,0.1-0.2,0.1-0.3c0,0,0,0,0,0
	c0-0.1,0.1-0.1,0.1-0.2c0,0,0-0.1,0-0.1c0-0.1,0.1-0.2,0.1-0.3c0,0,0-0.1,0-0.1c0,0,0-0.1,0-0.1c0,0,0-0.1,0-0.1c0-0.1,0-0.2,0-0.3
	c0-0.1,0-0.1,0-0.2l9-177c0-0.1,0-0.3,0-0.4c0-0.1,0-0.1,0-0.2c0,0,0,0,0,0c0-0.1,0-0.1,0-0.2c0-0.1,0-0.2,0-0.3c0-0.1,0-0.2,0-0.3
	c0-0.1,0-0.1,0-0.2c0,0,0-0.1,0-0.1c0-0.1,0-0.2-0.1-0.2c0-0.1-0.1-0.2-0.1-0.2c0-0.1-0.1-0.2-0.1-0.3c0-0.1-0.1-0.2-0.1-0.3
	c0,0,0,0,0,0c0-0.1-0.1-0.1-0.1-0.2c0-0.1-0.1-0.2-0.1-0.2c-0.1-0.1-0.1-0.2-0.2-0.3c0-0.1-0.1-0.1-0.1-0.2c0-0.1-0.1-0.1-0.1-0.2
	c-0.1-0.1-0.2-0.2-0.3-0.3c-0.1-0.1-0.1-0.1-0.2-0.2c0,0-0.1-0.1-0.1-0.1c-0.1-0.1-0.3-0.2-0.4-0.3c0,0-0.1-0.1-0.1-0.1c0,0,0,0,0,0
	c0,0,0,0,0,0c-0.1,0-0.1-0.1-0.2-0.1c-0.1-0.1-0.3-0.2-0.4-0.3c0,0-0.1,0-0.1,0c-0.1,0-0.1-0.1-0.2-0.1c-0.2-0.1-0.3-0.1-0.5-0.2
	c0,0-0.1,0-0.1-0.1l-144-42c-0.2-0.1-0.5-0.1-0.7-0.2c-0.1,0-0.1,0-0.2,0c-0.2,0-0.4,0-0.6,0c-0.1,0-0.1,0-0.2,0
	c-0.2,0-0.4,0-0.6,0.1c0,0-0.1,0-0.1,0c-0.2,0-0.5,0.1-0.7,0.2c0,0,0,0-0.1,0l-134,44c0,0-0.1,0-0.1,0c-0.2,0.1-0.4,0.1-0.6,0.2
	c-0.1,0-0.1,0-0.2,0.1c-0.2,0.1-0.4,0.2-0.6,0.4c0,0,0,0,0,0c-0.1,0-0.1,0.1-0.2,0.1c-0.1,0.1-0.3,0.2-0.4,0.4
	c-0.1,0.1-0.1,0.1-0.2,0.2c-0.1,0.1-0.2,0.3-0.3,0.4c-0.1,0.1-0.1,0.1-0.2,0.2c-0.1,0.2-0.2,0.3-0.3,0.5c0,0.1-0.1,0.1-0.1,0.2
	c-0.1,0.2-0.2,0.5-0.3,0.7c0,0.1,0,0.1-0.1,0.2c-0.1,0.2-0.1,0.4-0.2,0.6c0,0.1,0,0.2,0,0.3c0,0.2,0,0.4-0.1,0.5c0,0.1,0,0.1,0,0.2
	c0,0,0,0.1,0,0.1c0,0,0,0.1,0,0.1l3,172c0,2,1.1,3.8,2.9,4.7l139,75c0.1,0.1,0.2,0.1,0.3,0.1c0.1,0,0.2,0.1,0.3,0.1c0,0,0,0,0.1,0
	c0.1,0,0.2,0.1,0.3,0.1c0.1,0,0.2,0.1,0.3,0.1c0,0,0,0,0,0c0.1,0,0.3,0,0.4,0.1c0,0,0,0,0,0c0.1,0,0.2,0,0.2,0c0,0,0,0,0,0
	c0.2,0,0.4,0,0.7,0c0.2,0,0.5,0,0.7,0c0.1,0,0.1,0,0.2,0c0.2,0,0.3-0.1,0.5-0.1c0.1,0,0.2-0.1,0.3-0.1c0.1,0,0.3-0.1,0.4-0.1
	c0.1,0,0.2-0.1,0.3-0.1c0.1-0.1,0.2-0.1,0.3-0.2l127-72c0,0,0,0,0,0c0,0,0,0,0,0l0,0c0.1-0.1,0.2-0.1,0.3-0.2
	c0.1-0.1,0.2-0.1,0.3-0.2c0,0,0,0,0,0c0.1,0,0.1-0.1,0.2-0.2c0,0,0,0,0.1-0.1c0.1-0.1,0.2-0.1,0.2-0.2c0,0,0,0,0,0
	c0.1-0.1,0.1-0.1,0.2-0.2c0,0,0,0,0-0.1C298.2,246.6,298.2,246.5,298.3,246.5z M164.4,31.3l122.2,35.6l-119.6,50.1l-3.7-1.4
	L164.4,31.3z M273.8,225.7l-101.3-55.5v-43.6l124.6-52.2l-5.9,116L289,234L273.8,225.7z M30.6,76.1l121.5,47.1l-0.6,41.6l-118.2,67
	L30.6,76.1z M41.3,239.9L157,174.3l4.5,2.4v129L41.3,239.9z M172.5,182.8l110.2,60.3l-22,12.5l-88.2,50V182.8z M153.4,31.6
	l-1.1,79.8l-111-43L153.4,31.6z"/>
</svg>
