<?xml version="1.0" encoding="utf-8"?>
<!-- Generator: Adobe Illustrator 22.0.1, SVG Export Plug-In . SVG Version: 6.00 Build 0)  -->
<svg version="1.1" id="Layer_1" xmlns="http://www.w3.org/2000/svg" xmlns:xlink="http://www.w3.org/1999/xlink" x="0px" y="0px"
	 width="323px" height="337px" viewBox="0 0 323 337" style="enable-background:new 0 0 323 337;" xml:space="preserve">
<style type="text/css">
	.st0{fill:#424242;}
	.st1{fill:#333333;}
</style>
<polygon class="st0" points="159,24 157,168 294,243 303,66 "/>
<path class="st1" d="M294,248.5c-0.9,0-1.8-0.2-2.6-0.7l-137-75c-1.8-1-2.9-2.9-2.9-4.9l2-144c0-1.7,0.8-3.3,2.2-4.3
	c1.4-1,3.2-1.3,4.8-0.9l144,42c2.4,0.7,4.1,3,4,5.6l-9,177c-0.1,1.9-1.2,3.6-2.8,4.5C295.8,248.3,294.9,248.5,294,248.5z
	 M162.5,164.8L289,234l8.3-163.9L164.4,31.3L162.5,164.8z"/>
<path class="st1" d="M298.5,246.1c0.1-0.1,0.2-0.2,0.2-0.3c0.1-0.1,0.1-0.2,0.1-0.3c0.1-0.1,0.1-0.2,0.2-0.4c0-0.1,0.1-0.2,0.1-0.3
	c0-0.1,0.1-0.2,0.1-0.4c0-0.1,0.1-0.2,0.1-0.3c0-0.1,0.1-0.3,0.1-0.4c0-0.1,0-0.2,0-0.3c0-0.1,0-0.1,0-0.2l9-177c0-0.1,0-0.3,0-0.4
	c0-0.1,0-0.1,0-0.2c0,0,0,0,0,0c0-0.3-0.1-0.5-0.1-0.8c0-0.1,0-0.1,0-0.2c0-0.2-0.1-0.4-0.2-0.6c0-0.1-0.1-0.2-0.1-0.3
	c-0.1-0.2-0.1-0.3-0.2-0.5c0-0.1-0.1-0.2-0.1-0.2c-0.1-0.1-0.2-0.3-0.3-0.4c-0.1-0.1-0.1-0.1-0.2-0.2c-0.1-0.2-0.3-0.3-0.4-0.5
	c0,0-0.1-0.1-0.1-0.1c-0.2-0.2-0.4-0.3-0.6-0.5c0,0,0,0,0,0c-0.1,0-0.1-0.1-0.2-0.1c-0.2-0.1-0.3-0.2-0.5-0.3
	c-0.1,0-0.2-0.1-0.2-0.1c-0.2-0.1-0.3-0.1-0.5-0.2c0,0-0.1,0-0.1-0.1l-144-42c0,0,0,0,0,0c-0.2-0.1-0.5-0.1-0.7-0.2
	c-0.1,0-0.1,0-0.2,0c-0.2,0-0.4,0-0.5,0c-0.1,0-0.2,0-0.3,0c-0.2,0-0.4,0-0.5,0c-0.1,0-0.2,0-0.2,0c-0.2,0-0.5,0.1-0.7,0.2l-134,44
	c0,0-0.1,0-0.1,0c-0.2,0.1-0.4,0.1-0.6,0.2c0,0-0.1,0-0.1,0.1c0,0,0,0,0,0c-0.2,0.1-0.4,0.2-0.6,0.4c0,0,0,0,0,0c0,0,0,0-0.1,0
	c-0.1,0-0.1,0.1-0.2,0.1c-0.1,0.1-0.3,0.2-0.4,0.3c0,0-0.1,0.1-0.1,0.1c0,0-0.1,0.1-0.1,0.1c-0.1,0.1-0.2,0.2-0.3,0.3
	c0,0.1-0.1,0.1-0.1,0.2c0,0,0,0.1-0.1,0.1c-0.1,0.1-0.2,0.3-0.3,0.4c0,0.1-0.1,0.1-0.1,0.2c0,0,0,0,0,0.1c0,0,0,0.1-0.1,0.1
	c-0.1,0.2-0.1,0.3-0.2,0.5c0,0,0,0.1,0,0.1c0,0.1,0,0.2-0.1,0.2c0,0.1-0.1,0.3-0.1,0.4c0,0.1,0,0.1,0,0.2c0,0.1,0,0.1,0,0.2
	c0,0.1,0,0.3,0,0.4c0,0.1,0,0.1,0,0.2c0,0,0,0.1,0,0.1c0,0,0,0.1,0,0.1l3,172c0,0.2,0,0.5,0.1,0.7c0,0.1,0,0.2,0.1,0.2
	c0,0.2,0.1,0.3,0.1,0.5c0,0.1,0.1,0.2,0.1,0.3c0,0.1,0.1,0.3,0.1,0.4c0,0.1,0.1,0.2,0.1,0.3c0.1,0.1,0.1,0.2,0.2,0.4
	c0.1,0.1,0.1,0.2,0.2,0.3c0.1,0.1,0.1,0.2,0.2,0.3c0.1,0.1,0.1,0.2,0.2,0.2c0.1,0.1,0.2,0.2,0.3,0.3c0.1,0.1,0.2,0.1,0.3,0.2
	c0.1,0.1,0.2,0.2,0.3,0.2c0.1,0.1,0.2,0.1,0.3,0.2c0.1,0.1,0.2,0.1,0.3,0.2c0,0,0,0,0.1,0c0,0,0,0,0.1,0l139,75
	c0.1,0.1,0.2,0.1,0.3,0.1c0.1,0,0.2,0.1,0.3,0.1c0,0,0,0,0.1,0c0.1,0,0.2,0.1,0.3,0.1c0.1,0,0.2,0.1,0.3,0.1c0,0,0,0,0,0
	c0.1,0,0.3,0,0.4,0.1c0,0,0,0,0,0c0.1,0,0.2,0,0.2,0c0,0,0,0,0,0c0.2,0,0.4,0,0.7,0c0.2,0,0.5,0,0.7,0c0.1,0,0.1,0,0.2,0
	c0.2,0,0.3-0.1,0.5-0.1c0.1,0,0.2-0.1,0.3-0.1c0.1,0,0.3-0.1,0.4-0.1c0.1,0,0.2-0.1,0.3-0.1c0.1-0.1,0.2-0.1,0.3-0.2l127-72
	c0.2-0.1,0.4-0.3,0.6-0.4c0.1,0,0.1-0.1,0.2-0.2c0.1-0.1,0.2-0.2,0.4-0.3c0.1-0.1,0.1-0.1,0.2-0.2c0.1-0.1,0.2-0.2,0.3-0.3
	C298.4,246.3,298.4,246.2,298.5,246.1z M153.4,31.6l-1.1,79.8l-111-43l10.8-3.6L153.4,31.6z M151.5,164.7l-118.2,66L30.6,76.1
	l121.5,47.1L151.5,164.7z M41.3,239.9L157,174.3l4.5,2.4v129L41.3,239.9z M172.5,182.8l110.2,60.3l-22,12.5l-88.2,50V182.8z
	 M172.5,126.7l124.6-52.2L289,234l-116.5-63.8V126.7z M166.9,117.1l-3.7-1.4l1.2-84.3l122.2,35.6L166.9,117.1z"/>
</svg>
