<?xml version="1.0" encoding="utf-8"?>
<!-- Generator: Adobe Illustrator 22.0.1, SVG Export Plug-In . SVG Version: 6.00 Build 0)  -->
<svg version="1.1" id="Layer_1" xmlns="http://www.w3.org/2000/svg" xmlns:xlink="http://www.w3.org/1999/xlink" x="0px" y="0px"
	 width="323px" height="337px" viewBox="0 0 323 337" style="enable-background:new 0 0 323 337;" xml:space="preserve">
<style type="text/css">
	.st0{fill:#4A63FF;}
	.st1{fill:#333333;}
</style>
<polygon class="st0" points="30,240 157,168 294,243 167,315 "/>
<path class="st1" d="M167,320.5c-0.9,0-1.8-0.2-2.6-0.7l-137-75c-1.8-1-2.8-2.8-2.9-4.8c0-2,1.1-3.8,2.8-4.8l127-72
	c1.7-0.9,3.7-1,5.4,0l137,75c1.8,1,2.8,2.8,2.9,4.8s-1.1,3.8-2.8,4.8l-127,72C168.9,320.3,167.9,320.5,167,320.5z M41.3,239.9
	L167,308.7l115.7-65.6L157,174.3L41.3,239.9z"/>
<path class="st1" d="M298.5,246.1c0-0.1,0.1-0.1,0.1-0.2c0.1-0.1,0.1-0.3,0.2-0.4c0-0.1,0.1-0.1,0.1-0.2c0.1-0.1,0.1-0.3,0.2-0.4
	c0-0.1,0.1-0.1,0.1-0.2c0.1-0.2,0.1-0.3,0.1-0.5c0,0,0-0.1,0-0.1c0-0.2,0.1-0.5,0.1-0.7l9-177c0-0.1,0-0.3,0-0.4c0-0.1,0-0.1,0-0.2
	c0,0,0,0,0,0c0-0.1,0-0.1,0-0.2c0-0.1,0-0.2,0-0.3c0-0.1,0-0.2,0-0.3c0-0.1,0-0.1,0-0.2c0,0,0-0.1,0-0.1c0-0.1,0-0.2-0.1-0.2
	c0-0.1-0.1-0.2-0.1-0.2c0-0.1-0.1-0.2-0.1-0.3c0-0.1-0.1-0.2-0.1-0.3c0,0,0,0,0,0c0-0.1-0.1-0.1-0.1-0.2c0-0.1-0.1-0.2-0.1-0.2
	c-0.1-0.1-0.1-0.2-0.2-0.3c0-0.1-0.1-0.1-0.1-0.2c0-0.1-0.1-0.1-0.1-0.2c-0.1-0.1-0.2-0.2-0.3-0.3c-0.1-0.1-0.1-0.1-0.2-0.2
	c0,0-0.1-0.1-0.1-0.1c-0.1-0.1-0.3-0.2-0.4-0.3c0,0-0.1-0.1-0.1-0.1c0,0,0,0,0,0c0,0,0,0,0,0c-0.1,0-0.1-0.1-0.2-0.1
	c-0.1-0.1-0.3-0.2-0.4-0.3c0,0-0.1,0-0.1,0c-0.1,0-0.1-0.1-0.2-0.1c-0.2-0.1-0.3-0.1-0.5-0.2c0,0-0.1,0-0.1-0.1l-144-42c0,0,0,0,0,0
	c-0.1,0-0.2,0-0.2-0.1c-0.1,0-0.3-0.1-0.4-0.1c0,0-0.1,0-0.1,0c-0.1,0-0.1,0-0.2,0c-0.1,0-0.2,0-0.3,0c-0.1,0-0.1,0-0.2,0
	c-0.1,0-0.1,0-0.2,0c-0.1,0-0.1,0-0.2,0c-0.1,0-0.2,0-0.3,0c-0.1,0-0.1,0-0.2,0c0,0-0.1,0-0.1,0c0,0-0.1,0-0.1,0
	c-0.1,0-0.2,0-0.3,0.1c-0.1,0-0.2,0.1-0.4,0.1c0,0,0,0-0.1,0l-134,44c0,0-0.1,0-0.1,0c-0.2,0.1-0.4,0.1-0.6,0.2c0,0-0.1,0-0.1,0.1
	c0,0,0,0,0,0c-0.2,0.1-0.4,0.2-0.6,0.4c0,0,0,0,0,0c0,0,0,0-0.1,0c-0.1,0-0.1,0.1-0.2,0.1c-0.1,0.1-0.3,0.2-0.4,0.3
	c0,0-0.1,0.1-0.1,0.1c0,0-0.1,0.1-0.1,0.1c-0.1,0.1-0.2,0.2-0.3,0.3c0,0.1-0.1,0.1-0.1,0.2c0,0,0,0.1-0.1,0.1
	c-0.1,0.1-0.2,0.3-0.3,0.4c0,0.1-0.1,0.1-0.1,0.2c0,0,0,0,0,0.1c0,0,0,0.1-0.1,0.1c-0.1,0.2-0.1,0.3-0.2,0.5c0,0,0,0.1,0,0.1
	c0,0.1,0,0.2-0.1,0.2c0,0.1-0.1,0.3-0.1,0.4c0,0.1,0,0.1,0,0.2c0,0.1,0,0.1,0,0.2c0,0.1,0,0.3,0,0.4c0,0.1,0,0.1,0,0.2
	c0,0,0,0.1,0,0.1c0,0,0,0.1,0,0.1l3,172c0,0.2,0,0.5,0.1,0.7c0,0.1,0,0.2,0.1,0.2c0,0.2,0.1,0.3,0.1,0.5c0,0.1,0.1,0.2,0.1,0.3
	c0,0.1,0.1,0.3,0.1,0.4c0,0.1,0.1,0.2,0.1,0.3c0.1,0.1,0.1,0.2,0.2,0.4c0.1,0.1,0.1,0.2,0.2,0.3c0.1,0.1,0.1,0.2,0.2,0.3
	c0.1,0.1,0.1,0.2,0.2,0.2c0.1,0.1,0.2,0.2,0.3,0.3c0.1,0.1,0.2,0.1,0.3,0.2c0.1,0.1,0.2,0.2,0.3,0.2c0.1,0.1,0.2,0.1,0.3,0.2
	c0.1,0.1,0.2,0.1,0.3,0.2c0,0,0,0,0.1,0c0,0,0,0,0.1,0l139,75c0.1,0.1,0.2,0.1,0.3,0.1c0.1,0,0.2,0.1,0.3,0.1
	c0.1,0.1,0.3,0.1,0.4,0.1c0.1,0,0.2,0.1,0.3,0.1c0.1,0,0.3,0.1,0.4,0.1c0.1,0,0.2,0,0.2,0c0.2,0,0.5,0,0.7,0c0.2,0,0.5,0,0.7,0
	c0.1,0,0.2,0,0.2,0c0.2,0,0.3-0.1,0.5-0.1c0.1,0,0.2-0.1,0.3-0.1c0.1,0,0.3-0.1,0.4-0.1c0.1,0,0.2-0.1,0.3-0.1
	c0.1-0.1,0.2-0.1,0.3-0.2l127-72c0,0,0,0,0,0c0,0,0,0,0,0l0,0c0.1-0.1,0.2-0.1,0.3-0.2c0.1-0.1,0.2-0.1,0.3-0.2
	c0.1-0.1,0.2-0.2,0.3-0.2c0.1-0.1,0.2-0.1,0.2-0.2c0.1-0.1,0.2-0.2,0.3-0.3c0.1-0.1,0.1-0.1,0.2-0.2
	C298.4,246.3,298.4,246.2,298.5,246.1z M289,234l-116.5-63.8v-43.6l124.6-52.2l-5.9,116L289,234z M163.2,115.6l1.2-84.3l122.2,35.6
	l-119.6,50.1L163.2,115.6z M33.3,230.7L30.6,76.1l121.5,47.1l-0.6,41.6L33.3,230.7z M153.4,31.6L152.8,76l-0.5,35.4l-111-43
	l10.8-3.6L153.4,31.6z M157,174.3l4.5,2.4v129L39.4,239.9L157,174.3z M172.5,182.8l110.2,60.3l-110.2,62.5V182.8z"/>
</svg>
